<?xml version="1.0" encoding="UTF-8"?>
<!DOCTYPE svg PUBLIC "-//W3C//DTD SVG 1.1//EN" "http://www.w3.org/Graphics/SVG/1.1/DTD/svg11.dtd">
<svg xmlns="http://www.w3.org/2000/svg" version="1.1" width="571px" height="300px" style="shape-rendering:geometricPrecision; text-rendering:geometricPrecision; image-rendering:optimizeQuality; fill-rule:evenodd; clip-rule:evenodd" xmlns:xlink="http://www.w3.org/1999/xlink">
<g><path style="opacity:1" fill="#dda73a" d="M -0.5,-0.5 C 189.833,-0.5 380.167,-0.5 570.5,-0.5C 570.5,99.5 570.5,199.5 570.5,299.5C 380.167,299.5 189.833,299.5 -0.5,299.5C -0.5,199.5 -0.5,99.5 -0.5,-0.5 Z"/></g>
<g><path style="opacity:1" fill="#fefffe" d="M 261.5,40.5 C 279.503,40.3334 297.503,40.5001 315.5,41C 326.375,44.9463 329.875,52.4463 326,63.5C 323.313,67.1938 319.813,69.6938 315.5,71C 307.841,71.4997 300.174,71.6664 292.5,71.5C 292.183,74.5719 292.516,77.5719 293.5,80.5C 303.167,85.3333 312.833,90.1667 322.5,95C 326.152,95.4986 329.818,95.6653 333.5,95.5C 333.335,91.8183 333.501,88.1516 334,84.5C 334.5,84 335,83.5 335.5,83C 355.167,82.3333 374.833,82.3333 394.5,83C 395,83.5 395.5,84 396,84.5C 396.667,93.8333 396.667,103.167 396,112.5C 395.5,113 395,113.5 394.5,114C 374.833,114.667 355.167,114.667 335.5,114C 335,113.5 334.5,113 334,112.5C 333.502,109.183 333.335,105.85 333.5,102.5C 329.818,102.335 326.152,102.501 322.5,103C 312.833,107.833 303.167,112.667 293.5,117.5C 292.503,124.803 292.169,132.137 292.5,139.5C 301.173,139.334 309.84,139.5 318.5,140C 319,140.5 319.5,141 320,141.5C 320.667,150.833 320.667,160.167 320,169.5C 319.5,170 319,170.5 318.5,171C 309.84,171.5 301.173,171.666 292.5,171.5C 292.5,174.167 292.5,176.833 292.5,179.5C 304.5,179.5 316.5,179.5 328.5,179.5C 324.525,189.619 319.858,199.452 314.5,209C 307.174,209.5 299.841,209.666 292.5,209.5C 292.5,212.5 292.5,215.5 292.5,218.5C 301.25,218.09 309.916,218.59 318.5,220C 326.883,225.003 329.383,232.17 326,241.5C 323.795,244.04 321.295,246.207 318.5,248C 308.57,249.13 298.57,249.63 288.5,249.5C 278.43,249.63 268.43,249.13 258.5,248C 250.117,242.997 247.617,235.83 251,226.5C 253.205,223.96 255.705,221.793 258.5,220C 267.084,218.59 275.75,218.09 284.5,218.5C 284.5,215.5 284.5,212.5 284.5,209.5C 271.833,209.5 259.167,209.5 246.5,209.5C 250.475,199.381 255.142,189.548 260.5,180C 268.493,179.5 276.493,179.334 284.5,179.5C 284.5,176.833 284.5,174.167 284.5,171.5C 276.16,171.666 267.827,171.5 259.5,171C 259,170.5 258.5,170 258,169.5C 257.502,166.183 257.335,162.85 257.5,159.5C 232.831,159.667 208.164,159.5 183.5,159C 183,158.5 182.5,158 182,157.5C 181.333,137.5 181.333,117.5 182,97.5C 182.5,97 183,96.5 183.5,96C 207.167,95.6667 230.833,95.3333 254.5,95C 264.167,90.1667 273.833,85.3333 283.5,80.5C 284.484,77.5719 284.817,74.5719 284.5,71.5C 276.826,71.6664 269.159,71.4997 261.5,71C 250.625,67.0537 247.125,59.5537 251,48.5C 253.855,44.7893 257.355,42.1226 261.5,40.5 Z"/></g>
<g><path style="opacity:1" fill="#dca739" d="M 263.5,47.5 C 280.17,47.3334 296.837,47.5001 313.5,48C 321.5,53.3333 321.5,58.6667 313.5,64C 296.833,64.6667 280.167,64.6667 263.5,64C 255.547,58.5023 255.547,53.0023 263.5,47.5 Z"/></g>
<g><path style="opacity:1" fill="#dca739" d="M 287.5,86.5 C 295.78,90.6401 304.114,94.8068 312.5,99C 304.343,102.912 296.343,107.078 288.5,111.5C 280.657,107.078 272.657,102.912 264.5,99C 272.548,95.3132 280.215,91.1466 287.5,86.5 Z"/></g>
<g><path style="opacity:1" fill="#dca739" d="M 341.5,90.5 C 357.167,90.5 372.833,90.5 388.5,90.5C 388.5,95.8333 388.5,101.167 388.5,106.5C 372.833,106.5 357.167,106.5 341.5,106.5C 341.5,101.167 341.5,95.8333 341.5,90.5 Z"/></g>
<g><path style="opacity:1" fill="#dca739" d="M 188.5,102.5 C 210.503,102.333 232.503,102.5 254.5,103C 264.167,107.833 273.833,112.667 283.5,117.5C 284.497,124.803 284.831,132.137 284.5,139.5C 276.16,139.334 267.827,139.5 259.5,140C 259,140.5 258.5,141 258,141.5C 257.501,145.152 257.335,148.818 257.5,152.5C 234.5,152.5 211.5,152.5 188.5,152.5C 188.5,135.833 188.5,119.167 188.5,102.5 Z"/></g>
<g><path style="opacity:1" fill="#dca739" d="M 265.5,147.5 C 281.167,147.5 296.833,147.5 312.5,147.5C 312.5,152.833 312.5,158.167 312.5,163.5C 296.833,163.5 281.167,163.5 265.5,163.5C 265.5,158.167 265.5,152.833 265.5,147.5 Z"/></g>
<g><path style="opacity:1" fill="#dca739" d="M 265.5,186.5 C 282.513,186.167 299.513,186.501 316.5,187.5C 314.167,192.167 311.833,196.833 309.5,201.5C 292.5,202.833 275.5,202.833 258.5,201.5C 261.118,196.599 263.452,191.599 265.5,186.5 Z"/></g>
<g><path style="opacity:1" fill="#dca739" d="M 263.5,225.5 C 280.17,225.333 296.837,225.5 313.5,226C 321.5,231.333 321.5,236.667 313.5,242C 296.833,242.667 280.167,242.667 263.5,242C 255.547,236.502 255.547,231.002 263.5,225.5 Z"/></g>
</svg>
