<?xml version="1.0" encoding="UTF-8"?>
<!DOCTYPE svg PUBLIC "-//W3C//DTD SVG 1.1//EN" "http://www.w3.org/Graphics/SVG/1.1/DTD/svg11.dtd">
<svg xmlns="http://www.w3.org/2000/svg" version="1.1" width="571px" height="300px" style="shape-rendering:geometricPrecision; text-rendering:geometricPrecision; image-rendering:optimizeQuality; fill-rule:evenodd; clip-rule:evenodd" xmlns:xlink="http://www.w3.org/1999/xlink">
<g><path style="opacity:1" fill="#e3233b" d="M -0.5,-0.5 C 189.833,-0.5 380.167,-0.5 570.5,-0.5C 570.5,99.5 570.5,199.5 570.5,299.5C 380.167,299.5 189.833,299.5 -0.5,299.5C -0.5,199.5 -0.5,99.5 -0.5,-0.5 Z"/></g>
<g><path style="opacity:1" fill="#fefffe" d="M 287.5,41.5 C 300.704,42.7294 312.204,47.7294 322,56.5C 327.976,67.3934 331.643,79.06 333,91.5C 340.625,98.0807 341.458,105.414 335.5,113.5C 333.32,115.09 330.987,116.424 328.5,117.5C 324.431,127.978 318.598,137.311 311,145.5C 310.175,149.211 310.341,152.878 311.5,156.5C 326.718,159.603 342.051,162.103 357.5,164C 362.023,166.876 364.523,171.043 365,176.5C 365.167,186.833 365.333,197.167 365.5,207.5C 365.634,218.901 365.134,230.235 364,241.5C 362.52,244.663 360.02,246.496 356.5,247C 345.167,247.667 333.833,247.667 322.5,247C 309.734,243.134 297.068,238.967 284.5,234.5C 271.474,238.898 258.474,243.398 245.5,248C 235.833,248.667 226.167,248.667 216.5,248C 214,246.833 212.167,245 211,242.5C 210.667,226.833 210.333,211.167 210,195.5C 203.631,177.394 197.465,159.228 191.5,141C 191.667,140.167 191.833,139.333 192,138.5C 193.487,137.845 194.653,136.845 195.5,135.5C 187.788,125.382 179.621,115.716 171,106.5C 170.333,104.5 170.333,102.5 171,100.5C 174.205,89.8867 177.205,79.22 180,68.5C 182.064,67.4086 184.231,67.2419 186.5,68C 196.223,73.2792 206.056,78.4458 216,83.5C 217,85.1667 218,86.8333 219,88.5C 220.775,98.8162 222.442,109.15 224,119.5C 225.667,120.167 227.333,120.833 229,121.5C 235.318,134.136 241.651,146.802 248,159.5C 248.725,160.059 249.558,160.392 250.5,160.5C 254.796,159.474 259.129,158.641 263.5,158C 264.733,156.302 265.4,154.302 265.5,152C 265.333,150.167 265.167,148.333 265,146.5C 257.234,137.975 251.234,128.308 247,117.5C 236.91,115.067 232.91,108.734 235,98.5C 236.29,96.208 237.957,94.208 240,92.5C 240.093,81.3321 241.426,70.3321 244,59.5C 247.163,53.6559 251.996,49.8226 258.5,48C 268.225,45.4914 277.892,43.3248 287.5,41.5 Z"/></g>
<g><path style="opacity:1" fill="#e3233b" d="M 288.5,48.5 C 298.104,50.8651 306.938,54.8651 315,60.5C 317.194,63.5544 318.861,66.8878 320,70.5C 322.337,79.1828 324.67,87.8495 327,96.5C 331.276,99.0332 332.443,102.533 330.5,107C 327.568,107.272 325.068,108.438 323,110.5C 318.013,123.137 311.013,134.471 302,144.5C 301.016,150.693 301.682,156.693 304,162.5C 304.75,163.126 305.584,163.626 306.5,164C 322.501,166.667 338.501,169.334 354.5,172C 356.004,173.491 356.837,175.324 357,177.5C 357.499,181.821 357.666,186.154 357.5,190.5C 349.458,189.041 341.458,189.208 333.5,191C 324.437,194.365 315.77,198.532 307.5,203.5C 294.165,201.966 280.832,200.299 267.5,198.5C 262.5,188.5 257.5,178.5 252.5,168.5C 258.866,167.061 265.199,165.561 271.5,164C 273.014,160.362 273.68,156.529 273.5,152.5C 273.333,149.833 273.167,147.167 273,144.5C 264.562,134.632 257.895,123.632 253,111.5C 249.819,109.471 246.485,107.804 243,106.5C 241.54,102.202 242.874,99.2023 247,97.5C 247.927,86.109 249.26,74.7756 251,63.5C 252.892,59.9421 255.725,57.4421 259.5,56C 269.389,53.7968 279.056,51.2968 288.5,48.5 Z"/></g>
<g><path style="opacity:1" fill="#e3233b" d="M 192.5,80.5 C 198.594,83.6305 204.761,86.6305 211,89.5C 212.834,100.503 214.667,111.503 216.5,122.5C 216.471,124.029 215.804,125.196 214.5,126C 210.833,127.833 207.167,129.667 203.5,131.5C 194.821,121.985 186.487,112.152 178.5,102C 180.394,96.1514 182.394,90.318 184.5,84.5C 187.755,90.0084 190.755,95.675 193.5,101.5C 190.627,110.791 193.96,114.625 203.5,113C 206.394,110.091 207.227,106.591 206,102.5C 199.751,96.3535 195.251,89.0202 192.5,80.5 Z"/></g>
<g><path style="opacity:1" fill="#e3233b" d="M 223.5,129.5 C 235.494,151.82 246.66,174.486 257,197.5C 244.992,190.765 232.326,189.098 219,192.5C 218.228,192.355 217.561,192.022 217,191.5C 211.796,175.388 206.296,159.388 200.5,143.5C 208.028,138.571 215.695,133.904 223.5,129.5 Z"/></g>
<g><path style="opacity:1" fill="#e4223b" d="M 338.5,197.5 C 344.863,197.407 351.196,197.74 357.5,198.5C 357.5,201.5 357.5,204.5 357.5,207.5C 346.087,207.059 334.753,205.892 323.5,204C 328.6,201.776 333.6,199.61 338.5,197.5 Z"/></g>
<g><path style="opacity:1" fill="#e4223b" d="M 227.5,198.5 C 239.077,198.968 250.077,201.801 260.5,207C 292.839,209.834 325.172,212.667 357.5,215.5C 357.932,223.279 357.432,230.946 356,238.5C 345.243,239.653 334.41,239.82 323.5,239C 297.562,230.465 271.562,222.132 245.5,214C 241.822,213.582 238.155,213.082 234.5,212.5C 228.983,213.23 223.65,214.564 218.5,216.5C 218.172,211.125 218.505,205.792 219.5,200.5C 222.311,199.92 224.977,199.254 227.5,198.5 Z"/></g>
<g><path style="opacity:1" fill="#e3233b" d="M 231.5,220.5 C 245.406,221.858 258.739,225.358 271.5,231C 262.105,233.798 252.772,236.798 243.5,240C 235.173,240.5 226.84,240.666 218.5,240.5C 218.173,235.456 218.506,230.456 219.5,225.5C 223.45,223.414 227.45,221.748 231.5,220.5 Z"/></g>
</svg>
