<?xml version="1.0" encoding="UTF-8"?>
<!DOCTYPE svg PUBLIC "-//W3C//DTD SVG 1.1//EN" "http://www.w3.org/Graphics/SVG/1.1/DTD/svg11.dtd">
<svg xmlns="http://www.w3.org/2000/svg" version="1.1" width="571px" height="300px" style="shape-rendering:geometricPrecision; text-rendering:geometricPrecision; image-rendering:optimizeQuality; fill-rule:evenodd; clip-rule:evenodd" xmlns:xlink="http://www.w3.org/1999/xlink">
<g><path style="opacity:1" fill="#22b14b" d="M -0.5,-0.5 C 189.833,-0.5 380.167,-0.5 570.5,-0.5C 570.5,99.5 570.5,199.5 570.5,299.5C 380.167,299.5 189.833,299.5 -0.5,299.5C -0.5,199.5 -0.5,99.5 -0.5,-0.5 Z"/></g>
<g><path style="opacity:1" fill="#fefffe" d="M 276.5,39.5 C 309.66,36.499 335.16,48.8324 353,76.5C 367.004,106.414 363.837,134.248 343.5,160C 352.198,177.229 361.031,194.396 370,211.5C 371.5,216.667 369.667,218.5 364.5,217C 353.785,197.738 343.451,178.238 333.5,158.5C 358.783,131.197 360.95,102.197 340,71.5C 316.211,46.1423 288.377,40.6423 256.5,55C 226.958,73.9644 217.458,100.131 228,133.5C 228.667,135.5 228.667,137.5 228,139.5C 223.286,147.765 218.453,155.932 213.5,164C 217.556,168.787 222.723,171.954 229,173.5C 229.499,178.489 229.666,183.489 229.5,188.5C 232.561,188.444 234.728,189.778 236,192.5C 236.459,198.921 237.459,205.254 239,211.5C 241.909,214.394 245.409,215.227 249.5,214C 257.205,212.157 264.871,210.157 272.5,208C 275.5,207.333 278.5,207.333 281.5,208C 287.4,218.967 292.9,230.133 298,241.5C 299.5,246.667 297.667,248.5 292.5,247C 286.809,236.786 281.809,226.286 277.5,215.5C 266.788,218.347 255.955,220.68 245,222.5C 237.634,222.826 232.968,219.493 231,212.5C 229.725,206.518 228.559,200.518 227.5,194.5C 225.259,193.968 223.759,192.635 223,190.5C 221.97,186.227 221.303,181.894 221,177.5C 216.25,175.879 212.083,173.379 208.5,170C 206.571,166.744 206.071,163.244 207,159.5C 211.692,152.116 215.859,144.449 219.5,136.5C 208.191,93.9625 222.191,63.1291 261.5,44C 266.577,42.32 271.577,40.82 276.5,39.5 Z"/></g>
<g><path style="opacity:1" fill="#fefffe" d="M 259.5,75.5 C 262.187,75.3359 264.854,75.5026 267.5,76C 274.5,82 281.5,82 288.5,76C 298.667,74.1667 302.833,78.3333 301,88.5C 298.103,93.1549 293.937,94.6549 288.5,93C 281.5,87 274.5,87 267.5,93C 264.833,93.3333 262.167,93.6667 259.5,94C 255.984,97.3486 252.651,100.849 249.5,104.5C 255.833,105.833 262.167,105.833 268.5,104.5C 271.633,100.76 275.633,99.5933 280.5,101C 282.303,101.637 283.636,102.803 284.5,104.5C 288.857,106.218 292.524,105.384 295.5,102C 297.715,100.956 300.048,100.29 302.5,100C 306.333,96.1667 310.167,92.3333 314,88.5C 313.125,78.372 317.625,74.2053 327.5,76C 328.931,76.4652 330.097,77.2986 331,78.5C 332.174,82.0458 332.84,85.7125 333,89.5C 336.5,93 340,96.5 343.5,100C 351.942,100.702 355.108,105.202 353,113.5C 350.103,118.155 345.937,119.655 340.5,118C 338.697,117.363 337.364,116.197 336.5,114.5C 327.5,113.167 318.5,113.167 309.5,114.5C 314.318,119.819 319.318,124.985 324.5,130C 334.628,129.125 338.795,133.625 337,143.5C 336.167,145.667 334.667,147.167 332.5,148C 322.625,149.795 318.125,145.628 319,135.5C 313.5,130 308,124.5 302.5,119C 297.538,117.971 293.038,116.137 289,113.5C 287.5,113.833 286,114.167 284.5,114.5C 283.833,115.833 282.833,116.833 281.5,117.5C 280.167,124.833 280.167,132.167 281.5,139.5C 285.311,142.197 286.311,145.697 284.5,150C 286.833,152.333 289.167,154.667 291.5,157C 301.628,156.125 305.795,160.625 304,170.5C 303.167,172.667 301.667,174.167 299.5,175C 289.625,176.795 285.125,172.628 286,162.5C 283.833,160.333 281.667,158.167 279.5,156C 271.667,156.167 267.833,152.333 268,144.5C 259.5,136 251,127.5 242.5,119C 233.049,117.605 230.216,112.438 234,103.5C 236.344,101.226 239.178,100.059 242.5,100C 246.333,96.1667 250.167,92.3333 254,88.5C 253.363,82.9393 255.197,78.606 259.5,75.5 Z"/></g>
<g><path style="opacity:1" fill="#4aa246" d="M 319.5,93.5 C 321.857,93.3367 324.19,93.5034 326.5,94C 330.016,97.3486 333.349,100.849 336.5,104.5C 327.5,105.833 318.5,105.833 309.5,104.5C 312.855,100.813 316.189,97.1466 319.5,93.5 Z"/></g>
<g><path style="opacity:1" fill="#22b14b" d="M 249.5,113.5 C 255.868,113.17 262.202,113.504 268.5,114.5C 269.167,115.833 270.167,116.833 271.5,117.5C 272.664,124.142 272.831,130.808 272,137.5C 263.907,129.912 256.407,121.912 249.5,113.5 Z"/></g>
</svg>
