<?xml version="1.0" encoding="UTF-8"?>
<!DOCTYPE svg PUBLIC "-//W3C//DTD SVG 1.1//EN" "http://www.w3.org/Graphics/SVG/1.1/DTD/svg11.dtd">
<svg xmlns="http://www.w3.org/2000/svg" version="1.1" width="571px" height="300px" style="shape-rendering:geometricPrecision; text-rendering:geometricPrecision; image-rendering:optimizeQuality; fill-rule:evenodd; clip-rule:evenodd" xmlns:xlink="http://www.w3.org/1999/xlink">
<g><path style="opacity:1" fill="#fac312" d="M -0.5,-0.5 C 189.833,-0.5 380.167,-0.5 570.5,-0.5C 570.5,99.5 570.5,199.5 570.5,299.5C 380.167,299.5 189.833,299.5 -0.5,299.5C -0.5,199.5 -0.5,99.5 -0.5,-0.5 Z"/></g>
<g><path style="opacity:1" fill="#fefffe" d="M 181.5,40.5 C 253.167,40.5 324.833,40.5 396.5,40.5C 396.5,104.5 396.5,168.5 396.5,232.5C 393.833,232.5 391.167,232.5 388.5,232.5C 388.5,222.167 388.5,211.833 388.5,201.5C 379.833,201.5 371.167,201.5 362.5,201.5C 362.5,211.833 362.5,222.167 362.5,232.5C 359.833,232.5 357.167,232.5 354.5,232.5C 354.5,222.167 354.5,211.833 354.5,201.5C 345.833,201.5 337.167,201.5 328.5,201.5C 328.5,211.833 328.5,222.167 328.5,232.5C 325.833,232.5 323.167,232.5 320.5,232.5C 320.5,222.167 320.5,211.833 320.5,201.5C 311.833,201.5 303.167,201.5 294.5,201.5C 294.5,211.833 294.5,222.167 294.5,232.5C 291.833,232.5 289.167,232.5 286.5,232.5C 286.5,219.5 286.5,206.5 286.5,193.5C 314.833,193.5 343.167,193.5 371.5,193.5C 371.5,184.833 371.5,176.167 371.5,167.5C 337.5,167.5 303.5,167.5 269.5,167.5C 269.5,164.833 269.5,162.167 269.5,159.5C 306.167,159.5 342.833,159.5 379.5,159.5C 379.5,170.833 379.5,182.167 379.5,193.5C 382.5,193.5 385.5,193.5 388.5,193.5C 388.5,167.833 388.5,142.167 388.5,116.5C 385.5,116.5 382.5,116.5 379.5,116.5C 379.5,127.833 379.5,139.167 379.5,150.5C 376.833,150.5 374.167,150.5 371.5,150.5C 371.5,136.5 371.5,122.5 371.5,108.5C 377.167,108.5 382.833,108.5 388.5,108.5C 388.5,105.5 388.5,102.5 388.5,99.5C 380.167,99.5 371.833,99.5 363.5,99.5C 363.5,96.8333 363.5,94.1667 363.5,91.5C 371.833,91.5 380.167,91.5 388.5,91.5C 388.5,77.1667 388.5,62.8333 388.5,48.5C 371.5,48.5 354.5,48.5 337.5,48.5C 337.5,51.5 337.5,54.5 337.5,57.5C 351.5,57.5 365.5,57.5 379.5,57.5C 379.5,65.8333 379.5,74.1667 379.5,82.5C 371.167,82.5 362.833,82.5 354.5,82.5C 354.5,88.1667 354.5,93.8333 354.5,99.5C 348.833,99.5 343.167,99.5 337.5,99.5C 337.5,102.5 337.5,105.5 337.5,108.5C 345.833,108.5 354.167,108.5 362.5,108.5C 362.5,122.5 362.5,136.5 362.5,150.5C 331.5,150.5 300.5,150.5 269.5,150.5C 269.5,147.833 269.5,145.167 269.5,142.5C 297.833,142.5 326.167,142.5 354.5,142.5C 354.5,133.833 354.5,125.167 354.5,116.5C 346.167,116.5 337.833,116.5 329.5,116.5C 329.5,108.167 329.5,99.8333 329.5,91.5C 335.167,91.5 340.833,91.5 346.5,91.5C 346.5,85.8333 346.5,80.1667 346.5,74.5C 354.833,74.5 363.167,74.5 371.5,74.5C 371.5,71.5 371.5,68.5 371.5,65.5C 360.167,65.5 348.833,65.5 337.5,65.5C 337.5,71.5 337.5,77.5 337.5,83.5C 334.833,83.5 332.167,83.5 329.5,83.5C 329.5,71.8333 329.5,60.1667 329.5,48.5C 315.167,48.5 300.833,48.5 286.5,48.5C 286.5,71.1667 286.5,93.8333 286.5,116.5C 279.833,116.5 273.167,116.5 266.5,116.5C 266.5,113.833 266.5,111.167 266.5,108.5C 270.5,108.5 274.5,108.5 278.5,108.5C 278.5,88.5 278.5,68.5 278.5,48.5C 269.833,48.5 261.167,48.5 252.5,48.5C 252.5,54.1667 252.5,59.8333 252.5,65.5C 234.5,65.5 216.5,65.5 198.5,65.5C 198.5,62.8333 198.5,60.1667 198.5,57.5C 213.833,57.5 229.167,57.5 244.5,57.5C 244.5,54.5 244.5,51.5 244.5,48.5C 226.167,48.5 207.833,48.5 189.5,48.5C 189.5,54.1667 189.5,59.8333 189.5,65.5C 186.833,65.5 184.167,65.5 181.5,65.5C 181.5,57.1667 181.5,48.8333 181.5,40.5 Z"/></g>
<g><path style="opacity:1" fill="#fefffe" d="M 261.5,57.5 C 264.167,57.5 266.833,57.5 269.5,57.5C 269.5,71.5 269.5,85.5 269.5,99.5C 265.5,99.5 261.5,99.5 257.5,99.5C 257.5,102.5 257.5,105.5 257.5,108.5C 254.833,108.5 252.167,108.5 249.5,108.5C 249.5,105.5 249.5,102.5 249.5,99.5C 240.833,99.5 232.167,99.5 223.5,99.5C 223.5,104.167 223.5,108.833 223.5,113.5C 220.833,113.5 218.167,113.5 215.5,113.5C 215.5,106.167 215.5,98.8333 215.5,91.5C 230.833,91.5 246.167,91.5 261.5,91.5C 261.5,88.5 261.5,85.5 261.5,82.5C 243.167,82.5 224.833,82.5 206.5,82.5C 206.5,95.8333 206.5,109.167 206.5,122.5C 215.167,122.5 223.833,122.5 232.5,122.5C 232.5,117.833 232.5,113.167 232.5,108.5C 235.167,108.5 237.833,108.5 240.5,108.5C 240.5,113.167 240.5,117.833 240.5,122.5C 244.5,122.5 248.5,122.5 252.5,122.5C 252.5,120.833 252.5,119.167 252.5,117.5C 255.167,117.5 257.833,117.5 260.5,117.5C 260.5,120.167 260.5,122.833 260.5,125.5C 272.167,125.5 283.833,125.5 295.5,125.5C 295.5,102.833 295.5,80.1667 295.5,57.5C 303.833,57.5 312.167,57.5 320.5,57.5C 320.5,65.8333 320.5,74.1667 320.5,82.5C 317.833,82.5 315.167,82.5 312.5,82.5C 312.5,76.8333 312.5,71.1667 312.5,65.5C 309.5,65.5 306.5,65.5 303.5,65.5C 303.5,74.1667 303.5,82.8333 303.5,91.5C 309.167,91.5 314.833,91.5 320.5,91.5C 320.5,102.833 320.5,114.167 320.5,125.5C 329.167,125.5 337.833,125.5 346.5,125.5C 346.5,128.167 346.5,130.833 346.5,133.5C 335.167,133.5 323.833,133.5 312.5,133.5C 312.5,122.167 312.5,110.833 312.5,99.5C 309.5,99.5 306.5,99.5 303.5,99.5C 303.5,110.833 303.5,122.167 303.5,133.5C 289.167,133.5 274.833,133.5 260.5,133.5C 260.5,160.833 260.5,188.167 260.5,215.5C 245.5,215.5 230.5,215.5 215.5,215.5C 215.5,212.833 215.5,210.167 215.5,207.5C 227.833,207.5 240.167,207.5 252.5,207.5C 252.5,181.833 252.5,156.167 252.5,130.5C 237.167,130.5 221.833,130.5 206.5,130.5C 206.5,133.5 206.5,136.5 206.5,139.5C 218.833,139.5 231.167,139.5 243.5,139.5C 243.5,147.833 243.5,156.167 243.5,164.5C 234.167,164.5 224.833,164.5 215.5,164.5C 215.5,161.833 215.5,159.167 215.5,156.5C 222.167,156.5 228.833,156.5 235.5,156.5C 235.5,153.5 235.5,150.5 235.5,147.5C 225.833,147.5 216.167,147.5 206.5,147.5C 206.5,156.167 206.5,164.833 206.5,173.5C 218.833,173.5 231.167,173.5 243.5,173.5C 243.5,181.833 243.5,190.167 243.5,198.5C 231.167,198.5 218.833,198.5 206.5,198.5C 206.5,207.167 206.5,215.833 206.5,224.5C 227.5,224.5 248.5,224.5 269.5,224.5C 269.5,208.5 269.5,192.5 269.5,176.5C 300.5,176.5 331.5,176.5 362.5,176.5C 362.5,179.167 362.5,181.833 362.5,184.5C 334.167,184.5 305.833,184.5 277.5,184.5C 277.5,203.5 277.5,222.5 277.5,241.5C 286.167,241.5 294.833,241.5 303.5,241.5C 303.5,231.167 303.5,220.833 303.5,210.5C 306.167,210.5 308.833,210.5 311.5,210.5C 311.5,220.833 311.5,231.167 311.5,241.5C 320.167,241.5 328.833,241.5 337.5,241.5C 337.5,231.167 337.5,220.833 337.5,210.5C 340.167,210.5 342.833,210.5 345.5,210.5C 345.5,220.833 345.5,231.167 345.5,241.5C 354.167,241.5 362.833,241.5 371.5,241.5C 371.5,231.167 371.5,220.833 371.5,210.5C 374.167,210.5 376.833,210.5 379.5,210.5C 379.5,220.833 379.5,231.167 379.5,241.5C 385.167,241.5 390.833,241.5 396.5,241.5C 396.5,244.167 396.5,246.833 396.5,249.5C 324.833,249.5 253.167,249.5 181.5,249.5C 181.5,191.167 181.5,132.833 181.5,74.5C 184.167,74.5 186.833,74.5 189.5,74.5C 189.5,130.167 189.5,185.833 189.5,241.5C 216.167,241.5 242.833,241.5 269.5,241.5C 269.5,238.5 269.5,235.5 269.5,232.5C 245.833,232.5 222.167,232.5 198.5,232.5C 198.5,218.5 198.5,204.5 198.5,190.5C 210.833,190.5 223.167,190.5 235.5,190.5C 235.5,187.5 235.5,184.5 235.5,181.5C 223.167,181.5 210.833,181.5 198.5,181.5C 198.5,145.833 198.5,110.167 198.5,74.5C 219.5,74.5 240.5,74.5 261.5,74.5C 261.5,68.8333 261.5,63.1667 261.5,57.5 Z"/></g>
</svg>
