<?xml version="1.0" encoding="UTF-8"?>
<!DOCTYPE svg PUBLIC "-//W3C//DTD SVG 1.1//EN" "http://www.w3.org/Graphics/SVG/1.1/DTD/svg11.dtd">
<svg xmlns="http://www.w3.org/2000/svg" version="1.1" width="571px" height="300px" style="shape-rendering:geometricPrecision; text-rendering:geometricPrecision; image-rendering:optimizeQuality; fill-rule:evenodd; clip-rule:evenodd" xmlns:xlink="http://www.w3.org/1999/xlink">
<g><path style="opacity:1" fill="#de1768" d="M -0.5,-0.5 C 189.833,-0.5 380.167,-0.5 570.5,-0.5C 570.5,99.5 570.5,199.5 570.5,299.5C 380.167,299.5 189.833,299.5 -0.5,299.5C -0.5,199.5 -0.5,99.5 -0.5,-0.5 Z"/></g>
<g><path style="opacity:1" fill="#fefffe" d="M 181.5,41.5 C 192.172,41.3335 202.839,41.5002 213.5,42C 217.906,42.1193 221.406,43.9527 224,47.5C 225.622,58.7358 225.955,70.0692 225,81.5C 222.736,86.3834 218.902,88.8834 213.5,89C 202.833,89.6667 192.167,89.6667 181.5,89C 177.094,88.8807 173.594,87.0473 171,83.5C 169.378,72.2642 169.045,60.9308 170,49.5C 172.476,44.6934 176.31,42.0267 181.5,41.5 Z"/></g>
<g><path style="opacity:1" fill="#fefffe" d="M 362.5,41.5 C 373.172,41.3335 383.839,41.5002 394.5,42C 398.906,42.1193 402.406,43.9527 405,47.5C 406.622,58.7358 406.955,70.0692 406,81.5C 403.736,86.3834 399.902,88.8834 394.5,89C 383.833,89.6667 373.167,89.6667 362.5,89C 358.094,88.8807 354.594,87.0473 352,83.5C 350.378,72.2642 350.045,60.9308 351,49.5C 353.476,44.6934 357.31,42.0267 362.5,41.5 Z"/></g>
<g><path style="opacity:1" fill="#dd1767" d="M 182.5,49.5 C 193.896,49.0907 205.23,49.5907 216.5,51C 217.651,60.4223 217.818,69.9223 217,79.5C 215.601,80.2266 214.101,80.7266 212.5,81C 201.108,81.9091 189.775,81.5757 178.5,80C 177.349,70.5777 177.182,61.0777 178,51.5C 179.622,50.9011 181.122,50.2344 182.5,49.5 Z"/></g>
<g><path style="opacity:1" fill="#dd1767" d="M 363.5,49.5 C 374.896,49.0907 386.23,49.5907 397.5,51C 398.651,60.4223 398.818,69.9223 398,79.5C 396.601,80.2266 395.101,80.7266 393.5,81C 382.108,81.9091 370.775,81.5757 359.5,80C 358.349,70.5777 358.182,61.0777 359,51.5C 360.622,50.9011 362.122,50.2344 363.5,49.5 Z"/></g>
<g><path style="opacity:1" fill="#fefffe" d="M 233.5,55.5 C 239.166,54.278 243.666,55.9446 247,60.5C 247.602,65.3696 247.269,70.0363 246,74.5C 250.542,86.6295 255.376,98.6295 260.5,110.5C 276.228,105.969 290.561,98.8027 303.5,89C 311.355,82.3106 319.355,75.8106 327.5,69.5C 327.394,59.0992 332.394,54.5992 342.5,56C 349.158,62.047 349.158,68.047 342.5,74C 339.5,74.3333 336.5,74.6667 333.5,75C 320.785,85.3829 307.785,95.3829 294.5,105C 284.493,110.386 274.159,114.886 263.5,118.5C 268.4,131.469 274.734,143.636 282.5,155C 291.405,153.866 300.238,154.366 309,156.5C 311.628,155.206 313.628,153.206 315,150.5C 319.667,142.5 324.333,134.5 329,126.5C 328.566,122.548 328.566,118.548 329,114.5C 335,107.833 341,107.833 347,114.5C 348.93,123.307 345.43,128.307 336.5,129.5C 330.898,139.762 324.898,149.762 318.5,159.5C 322.717,161.405 326.884,163.405 331,165.5C 336.914,161.046 342.247,161.713 347,167.5C 348.833,178.333 344.333,182.833 333.5,181C 330.526,178.859 328.526,176.025 327.5,172.5C 323.024,170.399 318.524,168.399 314,166.5C 310.358,171.642 306.525,176.642 302.5,181.5C 312.612,193.781 323.278,205.614 334.5,217C 344.443,216.939 348.61,221.773 347,231.5C 342.156,237.316 336.656,237.983 330.5,233.5C 329.25,228.756 327.75,224.09 326,219.5C 315.964,209.132 306.297,198.466 297,187.5C 281.823,201.167 265.656,213.501 248.5,224.5C 247.904,234.128 242.904,237.961 233.5,236C 226.842,230.047 226.842,224.047 233.5,218C 237.241,217.498 240.908,217.498 244.5,218C 261.075,206.872 276.741,194.539 291.5,181C 287.212,175.59 283.045,170.09 279,164.5C 269.198,167.321 259.365,170.155 249.5,173C 247.547,175.956 245.214,178.623 242.5,181C 231.667,182.833 227.167,178.333 229,167.5C 234.209,161.606 240.042,160.94 246.5,165.5C 255.874,162.764 265.208,159.93 274.5,157C 266.567,145.302 260.067,132.802 255,119.5C 252.423,120.271 249.923,121.271 247.5,122.5C 244.453,128.139 239.786,129.973 233.5,128C 226.842,122.047 226.842,116.047 233.5,110C 236.5,109.333 239.5,109.333 242.5,110C 245.161,113.831 248.494,114.497 252.5,112C 247.475,99.9296 242.642,87.763 238,75.5C 230.045,73.533 227.045,68.533 229,60.5C 230.707,58.9625 232.207,57.2959 233.5,55.5 Z"/></g>
<g><path style="opacity:1" fill="#fefffe" d="M 181.5,94.5 C 192.172,94.3335 202.839,94.5002 213.5,95C 217.906,95.1193 221.406,96.9527 224,100.5C 225.622,111.736 225.955,123.069 225,134.5C 222.736,139.383 218.902,141.883 213.5,142C 202.833,142.667 192.167,142.667 181.5,142C 177.094,141.881 173.594,140.047 171,136.5C 169.378,125.264 169.045,113.931 170,102.5C 172.476,97.6934 176.31,95.0267 181.5,94.5 Z"/></g>
<g><path style="opacity:1" fill="#fefffe" d="M 362.5,94.5 C 373.172,94.3335 383.839,94.5002 394.5,95C 398.906,95.1193 402.406,96.9527 405,100.5C 406.622,111.736 406.955,123.069 406,134.5C 403.736,139.383 399.902,141.883 394.5,142C 383.833,142.667 373.167,142.667 362.5,142C 358.094,141.881 354.594,140.047 352,136.5C 350.378,125.264 350.045,113.931 351,102.5C 353.476,97.6934 357.31,95.0267 362.5,94.5 Z"/></g>
<g><path style="opacity:1" fill="#dd1767" d="M 182.5,102.5 C 193.896,102.091 205.23,102.591 216.5,104C 217.651,113.422 217.818,122.922 217,132.5C 215.601,133.227 214.101,133.727 212.5,134C 201.108,134.909 189.775,134.576 178.5,133C 177.349,123.578 177.182,114.078 178,104.5C 179.622,103.901 181.122,103.234 182.5,102.5 Z"/></g>
<g><path style="opacity:1" fill="#dd1767" d="M 363.5,102.5 C 374.896,102.091 386.23,102.591 397.5,104C 398.651,113.422 398.818,122.922 398,132.5C 396.601,133.227 395.101,133.727 393.5,134C 382.108,134.909 370.775,134.576 359.5,133C 358.349,123.578 358.182,114.078 359,104.5C 360.622,103.901 362.122,103.234 363.5,102.5 Z"/></g>
<g><path style="opacity:1" fill="#fefffe" d="M 181.5,148.5 C 192.172,148.333 202.839,148.5 213.5,149C 217.906,149.119 221.406,150.953 224,154.5C 225.622,165.736 225.955,177.069 225,188.5C 222.736,193.383 218.902,195.883 213.5,196C 202.833,196.667 192.167,196.667 181.5,196C 177.094,195.881 173.594,194.047 171,190.5C 169.378,179.264 169.045,167.931 170,156.5C 172.476,151.693 176.31,149.027 181.5,148.5 Z"/></g>
<g><path style="opacity:1" fill="#fefffe" d="M 362.5,148.5 C 373.172,148.333 383.839,148.5 394.5,149C 398.906,149.119 402.406,150.953 405,154.5C 406.622,165.736 406.955,177.069 406,188.5C 403.736,193.383 399.902,195.883 394.5,196C 383.833,196.667 373.167,196.667 362.5,196C 358.094,195.881 354.594,194.047 352,190.5C 350.378,179.264 350.045,167.931 351,156.5C 353.476,151.693 357.31,149.027 362.5,148.5 Z"/></g>
<g><path style="opacity:1" fill="#dd1767" d="M 182.5,156.5 C 193.896,156.091 205.23,156.591 216.5,158C 217.651,167.422 217.818,176.922 217,186.5C 215.601,187.227 214.101,187.727 212.5,188C 201.108,188.909 189.775,188.576 178.5,187C 177.349,177.578 177.182,168.078 178,158.5C 179.622,157.901 181.122,157.234 182.5,156.5 Z"/></g>
<g><path style="opacity:1" fill="#dd1767" d="M 363.5,156.5 C 374.896,156.091 386.23,156.591 397.5,158C 398.651,167.422 398.818,176.922 398,186.5C 396.601,187.227 395.101,187.727 393.5,188C 382.108,188.909 370.775,188.576 359.5,187C 358.349,177.578 358.182,168.078 359,158.5C 360.622,157.901 362.122,157.234 363.5,156.5 Z"/></g>
<g><path style="opacity:1" fill="#dd1767" d="M 289.5,162.5 C 294.978,162.149 300.312,162.816 305.5,164.5C 303.183,168.146 300.516,171.48 297.5,174.5C 294.342,171.172 291.342,167.672 288.5,164C 289.056,163.617 289.389,163.117 289.5,162.5 Z"/></g>
<g><path style="opacity:1" fill="#fefffe" d="M 181.5,202.5 C 192.172,202.333 202.839,202.5 213.5,203C 217.906,203.119 221.406,204.953 224,208.5C 225.622,219.736 225.955,231.069 225,242.5C 222.736,247.383 218.902,249.883 213.5,250C 202.833,250.667 192.167,250.667 181.5,250C 177.094,249.881 173.594,248.047 171,244.5C 169.378,233.264 169.045,221.931 170,210.5C 172.476,205.693 176.31,203.027 181.5,202.5 Z"/></g>
<g><path style="opacity:1" fill="#fefffe" d="M 362.5,202.5 C 373.172,202.333 383.839,202.5 394.5,203C 398.906,203.119 402.406,204.953 405,208.5C 406.622,219.736 406.955,231.069 406,242.5C 403.736,247.383 399.902,249.883 394.5,250C 383.833,250.667 373.167,250.667 362.5,250C 358.094,249.881 354.594,248.047 352,244.5C 350.378,233.264 350.045,221.931 351,210.5C 353.476,205.693 357.31,203.027 362.5,202.5 Z"/></g>
<g><path style="opacity:1" fill="#dd1767" d="M 182.5,210.5 C 193.896,210.091 205.23,210.591 216.5,212C 217.651,221.422 217.818,230.922 217,240.5C 215.601,241.227 214.101,241.727 212.5,242C 201.108,242.909 189.775,242.576 178.5,241C 177.349,231.578 177.182,222.078 178,212.5C 179.622,211.901 181.122,211.234 182.5,210.5 Z"/></g>
<g><path style="opacity:1" fill="#dd1767" d="M 363.5,210.5 C 374.896,210.091 386.23,210.591 397.5,212C 398.651,221.422 398.818,230.922 398,240.5C 396.601,241.227 395.101,241.727 393.5,242C 382.108,242.909 370.775,242.576 359.5,241C 358.349,231.578 358.182,222.078 359,212.5C 360.622,211.901 362.122,211.234 363.5,210.5 Z"/></g>
</svg>
