<?xml version="1.0" encoding="UTF-8"?>
<!DOCTYPE svg PUBLIC "-//W3C//DTD SVG 1.1//EN" "http://www.w3.org/Graphics/SVG/1.1/DTD/svg11.dtd">
<svg xmlns="http://www.w3.org/2000/svg" version="1.1" width="571px" height="300px" style="shape-rendering:geometricPrecision; text-rendering:geometricPrecision; image-rendering:optimizeQuality; fill-rule:evenodd; clip-rule:evenodd" xmlns:xlink="http://www.w3.org/1999/xlink">
<g><path style="opacity:1" fill="#407f46" d="M -0.5,-0.5 C 189.833,-0.5 380.167,-0.5 570.5,-0.5C 570.5,99.5 570.5,199.5 570.5,299.5C 380.167,299.5 189.833,299.5 -0.5,299.5C -0.5,199.5 -0.5,99.5 -0.5,-0.5 Z"/></g>
<g><path style="opacity:1" fill="#fefffe" d="M 276.5,42.5 C 284.507,42.3336 292.507,42.5003 300.5,43C 307.782,46.8214 309.282,52.3214 305,59.5C 303.915,60.2931 302.748,60.9598 301.5,61.5C 300.507,66.1196 300.173,70.7863 300.5,75.5C 312.885,76.5172 324.218,80.5172 334.5,87.5C 337.818,84.6828 340.985,81.6828 344,78.5C 342.156,64.8498 347.656,60.3498 360.5,65C 366.333,70.8333 372.167,76.6667 378,82.5C 381.173,91.1588 378.34,96.4921 369.5,98.5C 367.407,98.5142 365.574,97.8476 364,96.5C 360.783,99.3805 357.95,102.547 355.5,106C 374.703,132.199 378.87,160.699 368,191.5C 352.806,225.608 326.473,243.274 289,244.5C 250.226,243.049 223.559,224.383 209,188.5C 196.784,145.471 208.951,111.304 245.5,86C 255.086,80.2026 265.419,76.7026 276.5,75.5C 276.827,70.7863 276.493,66.1196 275.5,61.5C 269.095,57.4292 267.928,52.0958 272,45.5C 273.652,44.6006 275.152,43.6006 276.5,42.5 Z"/></g>
<g><path style="opacity:1" fill="#407f45" d="M 277.5,47.5 C 284.841,47.3337 292.174,47.5003 299.5,48C 303.5,51 303.5,54 299.5,57C 292.167,57.6667 284.833,57.6667 277.5,57C 273.581,53.8397 273.581,50.673 277.5,47.5 Z"/></g>
<g><path style="opacity:1" fill="#407f45" d="M 282.5,62.5 C 286.5,62.5 290.5,62.5 294.5,62.5C 294.5,66.5 294.5,70.5 294.5,74.5C 290.5,74.5 286.5,74.5 282.5,74.5C 282.5,70.5 282.5,66.5 282.5,62.5 Z"/></g>
<g><path style="opacity:1" fill="#407f45" d="M 351.5,68.5 C 352.873,68.3433 354.207,68.51 355.5,69C 361.333,74.8333 367.167,80.6667 373,86.5C 373.833,91 372,92.8333 367.5,92C 361.667,86.1667 355.833,80.3333 350,74.5C 349.252,72.1599 349.752,70.1599 351.5,68.5 Z"/></g>
<g><path style="opacity:1" fill="#407f46" d="M 277.5,82.5 C 322.166,79.9007 350.999,99.9007 364,142.5C 370.094,181.569 355.928,210.736 321.5,230C 286.387,243.711 255.887,236.878 230,209.5C 211.311,185.104 207.311,158.437 218,129.5C 230.087,103.902 249.92,88.2352 277.5,82.5 Z"/></g>
<g><path style="opacity:1" fill="#407f45" d="M 348.5,82.5 C 352.298,85.7961 355.964,89.2961 359.5,93C 356.354,95.3116 353.354,97.8116 350.5,100.5C 347.015,97.516 343.682,94.3493 340.5,91C 343.371,88.2972 346.038,85.4639 348.5,82.5 Z"/></g>
<g><path style="opacity:1" fill="#fefffe" d="M 287.5,98.5 C 290.897,99.2585 292.23,101.425 291.5,105C 291.955,107.923 290.955,110.09 288.5,111.5C 286.045,110.09 285.045,107.923 285.5,105C 285.338,102.498 286.005,100.331 287.5,98.5 Z"/></g>
<g><path style="opacity:1" fill="#f2f6f2" d="M 258.5,107.5 C 264.245,108.578 266.912,112.245 266.5,118.5C 261.936,118.12 258.936,115.62 257.5,111C 258.337,109.989 258.67,108.822 258.5,107.5 Z"/></g>
<g><path style="opacity:1" fill="#f2f6f2" d="M 313.5,107.5 C 315.167,107.5 316.833,107.5 318.5,107.5C 319.367,111.173 318.367,114.506 315.5,117.5C 313.955,118.452 312.288,118.785 310.5,118.5C 310.624,114.588 311.624,110.921 313.5,107.5 Z"/></g>
<g><path style="opacity:1" fill="#fefffe" d="M 287.5,119.5 C 289.017,119.511 290.184,120.177 291,121.5C 291.333,129.5 291.667,137.5 292,145.5C 297.19,147.516 300.357,151.183 301.5,156.5C 306.179,156.334 310.845,156.501 315.5,157C 318.167,158.667 318.167,160.333 315.5,162C 310.798,162.172 306.132,162.672 301.5,163.5C 297.664,171.749 291.33,174.583 282.5,172C 274.185,166.553 272.352,159.387 277,150.5C 279.07,148.213 281.57,146.547 284.5,145.5C 285.332,137.521 285.832,129.521 286,121.5C 286.717,120.956 287.217,120.289 287.5,119.5 Z"/></g>
<g><path style="opacity:1" fill="#f0f5f0" d="M 238.5,128.5 C 243.17,129.324 246.503,131.824 248.5,136C 243.005,138.26 239.005,136.593 236.5,131C 237.056,129.989 237.722,129.156 238.5,128.5 Z"/></g>
<g><path style="opacity:1" fill="#f0f5f1" d="M 335.5,128.5 C 339.554,128.259 340.887,129.926 339.5,133.5C 336.382,137.355 332.716,138.188 328.5,136C 329.191,134.933 329.691,133.766 330,132.5C 332.167,131.512 334,130.179 335.5,128.5 Z"/></g>
<g><path style="opacity:1" fill="#407f45" d="M 287.5,152.5 C 293.218,153.874 295.052,157.207 293,162.5C 287.836,166.45 284.003,165.283 281.5,159C 282.351,155.653 284.351,153.487 287.5,152.5 Z"/></g>
<g><path style="opacity:1" fill="#fefffe" d="M 230.5,156.5 C 233.518,156.335 236.518,156.502 239.5,157C 242.167,158.667 242.167,160.333 239.5,162C 236.5,162.667 233.5,162.667 230.5,162C 227.982,160.19 227.982,158.357 230.5,156.5 Z"/></g>
<g><path style="opacity:1" fill="#fefffe" d="M 338.5,156.5 C 341.518,156.335 344.518,156.502 347.5,157C 350.167,158.667 350.167,160.333 347.5,162C 344.5,162.667 341.5,162.667 338.5,162C 335.982,160.19 335.982,158.357 338.5,156.5 Z"/></g>
<g><path style="opacity:1" fill="#f0f5f0" d="M 242.5,181.5 C 247.678,180.492 249.178,182.159 247,186.5C 244.651,187.84 242.317,189.174 240,190.5C 236.856,189.879 236.022,188.212 237.5,185.5C 239.21,184.113 240.877,182.779 242.5,181.5 Z"/></g>
<g><path style="opacity:1" fill="#f0f5f0" d="M 330.5,181.5 C 335.743,181.118 339.41,183.284 341.5,188C 340.788,189.442 339.621,190.275 338,190.5C 333.95,189.248 331.116,186.748 329.5,183C 330.056,182.617 330.389,182.117 330.5,181.5 Z"/></g>
<g><path style="opacity:1" fill="#f3f7f3" d="M 261.5,200.5 C 263.167,200.5 264.833,200.5 266.5,200.5C 266.912,206.755 264.245,210.422 258.5,211.5C 258.67,210.178 258.337,209.011 257.5,208C 259.494,205.842 260.828,203.342 261.5,200.5 Z"/></g>
<g><path style="opacity:1" fill="#f3f7f4" d="M 311.5,200.5 C 313.288,200.215 314.955,200.548 316.5,201.5C 317.635,203.799 318.968,205.966 320.5,208C 319.663,209.011 319.33,210.178 319.5,211.5C 313.755,210.422 311.088,206.755 311.5,200.5 Z"/></g>
<g><path style="opacity:1" fill="#fefffe" d="M 287.5,207.5 C 290.897,208.258 292.23,210.425 291.5,214C 291.955,216.923 290.955,219.09 288.5,220.5C 286.045,219.09 285.045,216.923 285.5,214C 285.338,211.498 286.005,209.331 287.5,207.5 Z"/></g>
</svg>
