<?xml version="1.0" encoding="UTF-8"?>
<!DOCTYPE svg PUBLIC "-//W3C//DTD SVG 1.1//EN" "http://www.w3.org/Graphics/SVG/1.1/DTD/svg11.dtd">
<svg xmlns="http://www.w3.org/2000/svg" version="1.1" width="571px" height="300px" style="shape-rendering:geometricPrecision; text-rendering:geometricPrecision; image-rendering:optimizeQuality; fill-rule:evenodd; clip-rule:evenodd" xmlns:xlink="http://www.w3.org/1999/xlink">
<g><path style="opacity:1" fill="#c6202e" d="M -0.5,-0.5 C 189.833,-0.5 380.167,-0.5 570.5,-0.5C 570.5,99.5 570.5,199.5 570.5,299.5C 380.167,299.5 189.833,299.5 -0.5,299.5C -0.5,199.5 -0.5,99.5 -0.5,-0.5 Z"/></g>
<g><path style="opacity:1" fill="#fefefe" d="M 203.5,38.5 C 209.262,38.1493 214.928,38.6493 220.5,40C 225.874,42.5382 230.54,46.0382 234.5,50.5C 239.705,45.2117 244.871,45.2117 250,50.5C 250.483,51.448 250.649,52.448 250.5,53.5C 248.156,52.0171 245.656,50.6838 243,49.5C 241.373,49.6251 239.873,50.1251 238.5,51C 237.549,51.7175 237.383,52.5509 238,53.5C 240.851,55.3445 244.018,56.5112 247.5,57C 250.932,59.367 251.265,62.0337 248.5,65C 254.333,70.8333 260.167,76.6667 266,82.5C 266.483,81.552 266.649,80.552 266.5,79.5C 268.5,79.5 270.5,79.5 272.5,79.5C 274.167,95.5 275.833,95.5 277.5,79.5C 279.5,79.5 281.5,79.5 283.5,79.5C 283.334,86.5079 283.5,93.5079 284,100.5C 289.333,105.833 294.667,111.167 300,116.5C 300.483,115.552 300.649,114.552 300.5,113.5C 301.5,113.5 302.5,113.5 303.5,113.5C 303.232,116.119 303.565,118.619 304.5,121C 307.146,121.497 309.813,121.664 312.5,121.5C 312.5,118.833 312.5,116.167 312.5,113.5C 313.5,113.5 314.5,113.5 315.5,113.5C 315.334,119.842 315.5,126.175 316,132.5C 322.667,139.167 329.333,145.833 336,152.5C 340.777,146.312 345.943,145.979 351.5,151.5C 348.902,152.568 346.402,152.235 344,150.5C 341.525,150.984 339.692,152.317 338.5,154.5C 341.15,157.651 343.984,160.651 347,163.5C 348.11,161.963 349.61,161.297 351.5,161.5C 351.703,163.39 351.037,164.89 349.5,166C 356,172.5 362.5,179 369,185.5C 373.725,180.686 378.725,180.353 384,184.5C 387.377,189.591 387.21,194.591 383.5,199.5C 392.364,207.597 395.531,217.597 393,229.5C 386.953,245.445 375.453,251.945 358.5,249C 353.214,247.359 348.547,244.692 344.5,241C 309.167,205.667 273.833,170.333 238.5,135C 237.207,134.51 235.873,134.343 234.5,134.5C 234.657,133.127 234.49,131.793 234,130.5C 223.833,120.333 213.667,110.167 203.5,100C 202.207,99.51 200.873,99.3433 199.5,99.5C 199.657,98.1266 199.49,96.7932 199,95.5C 191.698,89.5487 186.365,82.2153 183,73.5C 180.147,55.9099 186.98,44.2432 203.5,38.5 Z"/></g>
<g><path style="opacity:1" fill="#c7202f" d="M 204.5,46.5 C 211.473,45.5358 217.807,47.0358 223.5,51C 276,103.5 328.5,156 381,208.5C 388.068,218.245 387.568,227.745 379.5,237C 375.391,239.814 370.891,241.647 366,242.5C 361.396,241.41 356.896,239.91 352.5,238C 299.667,185.167 246.833,132.333 194,79.5C 186.648,64.7287 190.148,53.7287 204.5,46.5 Z"/></g>
<g><path style="opacity:1" fill="#fefffe" d="M 273.5,46.5 C 277.54,46.1902 280.873,47.5236 283.5,50.5C 280.902,51.5679 278.402,51.2346 276,49.5C 270.226,51.3776 268.559,55.0442 271,60.5C 272.182,62.3569 273.849,63.3569 276,63.5C 278.41,62.2524 280.91,61.2524 283.5,60.5C 283.374,63.595 281.707,65.4283 278.5,66C 269.555,66.6373 265.722,62.4706 267,53.5C 268.018,49.9853 270.185,47.652 273.5,46.5 Z"/></g>
<g><path style="opacity:1" fill="#fefffe" d="M 308.5,46.5 C 310.288,46.2148 311.955,46.5481 313.5,47.5C 315.908,53.7239 317.908,60.0572 319.5,66.5C 318.5,66.5 317.5,66.5 316.5,66.5C 316.427,63.0504 314.594,61.717 311,62.5C 307.406,61.717 305.573,63.0504 305.5,66.5C 304.5,66.5 303.5,66.5 302.5,66.5C 304.297,59.7742 306.297,53.1076 308.5,46.5 Z"/></g>
<g><path style="opacity:1" fill="#fefffe" d="M 340.5,46.5 C 344.54,46.1902 347.873,47.5236 350.5,50.5C 347.902,51.5679 345.402,51.2346 343,49.5C 337.226,51.3776 335.559,55.0442 338,60.5C 339.182,62.3569 340.849,63.3569 343,63.5C 345.41,62.2524 347.91,61.2524 350.5,60.5C 350.374,63.595 348.707,65.4283 345.5,66C 336.555,66.6373 332.722,62.4706 334,53.5C 335.018,49.9853 337.185,47.652 340.5,46.5 Z"/></g>
<g><path style="opacity:1" fill="#fefffe" d="M 367.5,46.5 C 368.5,46.5 369.5,46.5 370.5,46.5C 370.5,49.1667 370.5,51.8333 370.5,54.5C 373.5,54.5 376.5,54.5 379.5,54.5C 379.5,51.8333 379.5,49.1667 379.5,46.5C 380.5,46.5 381.5,46.5 382.5,46.5C 382.5,53.1667 382.5,59.8333 382.5,66.5C 381.5,66.5 380.5,66.5 379.5,66.5C 379.5,63.5 379.5,60.5 379.5,57.5C 376.5,57.5 373.5,57.5 370.5,57.5C 370.5,60.5 370.5,63.5 370.5,66.5C 369.5,66.5 368.5,66.5 367.5,66.5C 367.5,59.8333 367.5,53.1667 367.5,46.5 Z"/></g>
<g><path style="opacity:1" fill="#c6202e" d="M 310.5,49.5 C 312.198,52.2314 313.531,55.2314 314.5,58.5C 312.167,59.8333 309.833,59.8333 307.5,58.5C 308.705,55.5504 309.705,52.5504 310.5,49.5 Z"/></g>
<g><path style="opacity:1" fill="#c6202e" d="M 242.5,59.5 C 244.707,58.1301 246.374,58.7968 247.5,61.5C 247.167,61.8333 246.833,62.1667 246.5,62.5C 245.148,61.4756 243.815,60.4756 242.5,59.5 Z"/></g>
<g><path style="opacity:1" fill="#fefffe" d="M 208.5,64.5 C 210.792,64.2436 212.959,64.5769 215,65.5C 216.541,70.6247 218.374,75.6247 220.5,80.5C 222.626,75.6247 224.459,70.6247 226,65.5C 228.041,64.5769 230.208,64.2436 232.5,64.5C 232.5,73.1667 232.5,81.8333 232.5,90.5C 231.167,90.5 229.833,90.5 228.5,90.5C 228.666,85.1563 228.499,79.8229 228,74.5C 226.333,79.5 224.667,84.5 223,89.5C 221.333,90.8333 219.667,90.8333 218,89.5C 216.333,84.5 214.667,79.5 213,74.5C 212.501,79.8229 212.334,85.1563 212.5,90.5C 211.167,90.5 209.833,90.5 208.5,90.5C 208.5,81.8333 208.5,73.1667 208.5,64.5 Z"/></g>
<g><path style="opacity:1" fill="#fefffe" d="M 308.5,79.5 C 315.695,79.0873 319.695,82.4206 320.5,89.5C 320.235,95.5983 317.068,98.9316 311,99.5C 301.803,96.7637 299.47,91.0971 304,82.5C 305.652,81.6006 307.152,80.6006 308.5,79.5 Z"/></g>
<g><path style="opacity:1" fill="#fefffe" d="M 333.5,79.5 C 339.167,79.5 344.833,79.5 350.5,79.5C 350.5,80.5 350.5,81.5 350.5,82.5C 348.167,82.5 345.833,82.5 343.5,82.5C 343.5,88.1667 343.5,93.8333 343.5,99.5C 342.5,99.5 341.5,99.5 340.5,99.5C 340.5,93.8333 340.5,88.1667 340.5,82.5C 338.167,82.5 335.833,82.5 333.5,82.5C 333.5,81.5 333.5,80.5 333.5,79.5 Z"/></g>
<g><path style="opacity:1" fill="#fefffe" d="M 372.5,79.5 C 378.412,78.6087 382.079,80.942 383.5,86.5C 381.156,85.0171 378.656,83.6838 376,82.5C 373.63,82.6002 371.797,83.6002 370.5,85.5C 370.977,86.4776 371.643,87.3109 372.5,88C 376.558,88.3783 380.058,89.8783 383,92.5C 383.682,96.1802 382.182,98.6802 378.5,100C 372.588,101.384 368.921,99.2178 367.5,93.5C 369.906,95.2114 372.573,96.5447 375.5,97.5C 380.057,97.172 381.057,95.3387 378.5,92C 374.231,92.2121 370.731,90.7121 368,87.5C 367.533,83.7853 369.033,81.1186 372.5,79.5 Z"/></g>
<g><path style="opacity:1" fill="#c6202e" d="M 309.5,82.5 C 318.405,84.7639 319.738,89.2639 313.5,96C 307.379,96.5457 304.546,93.7124 305,87.5C 306.025,85.313 307.525,83.6464 309.5,82.5 Z"/></g>
<g><path style="opacity:1" fill="#c6202e" d="M 279.5,84.5 C 280.645,88.3112 280.812,92.3112 280,96.5C 278.978,95.646 278.145,94.646 277.5,93.5C 278.642,90.6008 279.308,87.6008 279.5,84.5 Z"/></g>
<g><path style="opacity:1" fill="#fefffe" d="M 340.5,109.5 C 345.238,109.602 345.238,110.935 340.5,113.5C 339.708,112.3 339.708,110.967 340.5,109.5 Z"/></g>
<g><path style="opacity:1" fill="#fefffe" d="M 265.5,110.5 C 275.306,110.637 280.639,115.637 281.5,125.5C 280.179,137.345 273.846,141.845 262.5,139C 254.745,132.125 253.578,124.291 259,115.5C 260.805,113.174 262.972,111.508 265.5,110.5 Z"/></g>
<g><path style="opacity:1" fill="#fefffe" d="M 207.5,114.5 C 211.54,114.19 214.873,115.524 217.5,118.5C 214.902,119.568 212.402,119.235 210,117.5C 204.226,119.378 202.559,123.044 205,128.5C 206.182,130.357 207.849,131.357 210,131.5C 212.41,130.252 214.91,129.252 217.5,128.5C 217.374,131.595 215.707,133.428 212.5,134C 203.555,134.637 199.722,130.471 201,121.5C 202.018,117.985 204.185,115.652 207.5,114.5 Z"/></g>
<g><path style="opacity:1" fill="#fefffe" d="M 333.5,114.5 C 338.167,114.5 342.833,114.5 347.5,114.5C 347.5,115.5 347.5,116.5 347.5,117.5C 343.833,117.5 340.167,117.5 336.5,117.5C 336.5,119.167 336.5,120.833 336.5,122.5C 339.833,122.5 343.167,122.5 346.5,122.5C 346.5,123.5 346.5,124.5 346.5,125.5C 343.167,125.5 339.833,125.5 336.5,125.5C 336.5,127.5 336.5,129.5 336.5,131.5C 340.167,131.5 343.833,131.5 347.5,131.5C 347.5,132.5 347.5,133.5 347.5,134.5C 342.833,134.5 338.167,134.5 333.5,134.5C 333.5,127.833 333.5,121.167 333.5,114.5 Z"/></g>
<g><path style="opacity:1" fill="#fefffe" d="M 372.5,114.5 C 378.412,113.609 382.079,115.942 383.5,121.5C 381.156,120.017 378.656,118.684 376,117.5C 373.63,117.6 371.797,118.6 370.5,120.5C 370.977,121.478 371.643,122.311 372.5,123C 376.558,123.378 380.058,124.878 383,127.5C 383.682,131.18 382.182,133.68 378.5,135C 372.588,136.384 368.921,134.218 367.5,128.5C 369.906,130.211 372.573,131.545 375.5,132.5C 380.057,132.172 381.057,130.339 378.5,127C 374.231,127.212 370.731,125.712 368,122.5C 367.533,118.785 369.033,116.119 372.5,114.5 Z"/></g>
<g><path style="opacity:1" fill="#c6202e" d="M 266.5,115.5 C 273.015,115.85 276.348,119.35 276.5,126C 274.939,134.867 270.439,137.034 263,132.5C 259.021,125.694 260.188,120.027 266.5,115.5 Z"/></g>
<g><path style="opacity:1" fill="#c6202e" d="M 308.5,125.5 C 309.568,124.566 310.901,124.232 312.5,124.5C 312.657,125.873 312.49,127.207 312,128.5C 310.961,127.29 309.794,126.29 308.5,125.5 Z"/></g>
<g><path style="opacity:1" fill="#fefffe" d="M 200.5,147.5 C 202.5,147.5 204.5,147.5 206.5,147.5C 208.167,163.5 209.833,163.5 211.5,147.5C 213.5,147.5 215.5,147.5 217.5,147.5C 217.5,154.167 217.5,160.833 217.5,167.5C 216.5,167.5 215.5,167.5 214.5,167.5C 214.666,162.489 214.499,157.489 214,152.5C 210.667,172.5 207.333,172.5 204,152.5C 203.501,157.489 203.334,162.489 203.5,167.5C 202.5,167.5 201.5,167.5 200.5,167.5C 200.5,160.833 200.5,154.167 200.5,147.5 Z"/></g>
<g><path style="opacity:1" fill="#fefffe" d="M 241.5,147.5 C 248.695,147.087 252.695,150.421 253.5,157.5C 253.235,163.598 250.068,166.932 244,167.5C 234.803,164.764 232.47,159.097 237,150.5C 238.652,149.601 240.152,148.601 241.5,147.5 Z"/></g>
<g><path style="opacity:1" fill="#fefffe" d="M 373.5,147.5 C 375.288,147.215 376.955,147.548 378.5,148.5C 380.908,154.724 382.908,161.057 384.5,167.5C 383.5,167.5 382.5,167.5 381.5,167.5C 381.427,164.05 379.594,162.717 376,163.5C 372.406,162.717 370.573,164.05 370.5,167.5C 369.5,167.5 368.5,167.5 367.5,167.5C 369.297,160.774 371.297,154.108 373.5,147.5 Z"/></g>
<g><path style="opacity:1" fill="#c6202e" d="M 242.5,150.5 C 251.405,152.764 252.738,157.264 246.5,164C 240.379,164.546 237.546,161.712 238,155.5C 239.025,153.313 240.525,151.646 242.5,150.5 Z"/></g>
<g><path style="opacity:1" fill="#c6202e" d="M 375.5,150.5 C 377.198,153.231 378.531,156.231 379.5,159.5C 377.167,160.833 374.833,160.833 372.5,159.5C 373.705,156.55 374.705,153.55 375.5,150.5 Z"/></g>
<g><path style="opacity:1" fill="#fefffe" d="M 298.5,156.5 C 306.167,156.5 313.833,156.5 321.5,156.5C 321.5,158.167 321.5,159.833 321.5,161.5C 318.5,161.5 315.5,161.5 312.5,161.5C 312.5,169.167 312.5,176.833 312.5,184.5C 310.833,184.5 309.167,184.5 307.5,184.5C 307.5,176.833 307.5,169.167 307.5,161.5C 304.5,161.5 301.5,161.5 298.5,161.5C 298.5,159.833 298.5,158.167 298.5,156.5 Z"/></g>
<g><path style="opacity:1" fill="#fefffe" d="M 273.5,176.5 C 278.238,176.602 278.238,177.935 273.5,180.5C 272.708,179.3 272.708,177.967 273.5,176.5 Z"/></g>
<g><path style="opacity:1" fill="#fefffe" d="M 206.5,181.5 C 210.54,181.19 213.873,182.524 216.5,185.5C 213.902,186.568 211.402,186.235 209,184.5C 203.226,186.378 201.559,190.044 204,195.5C 205.182,197.357 206.849,198.357 209,198.5C 211.41,197.252 213.91,196.252 216.5,195.5C 216.374,198.595 214.707,200.428 211.5,201C 202.555,201.637 198.722,197.471 200,188.5C 201.018,184.985 203.185,182.652 206.5,181.5 Z"/></g>
<g><path style="opacity:1" fill="#fefffe" d="M 234.5,181.5 C 235.5,181.5 236.5,181.5 237.5,181.5C 237.5,184.167 237.5,186.833 237.5,189.5C 240.167,189.5 242.833,189.5 245.5,189.5C 245.5,186.833 245.5,184.167 245.5,181.5C 246.5,181.5 247.5,181.5 248.5,181.5C 248.5,188.167 248.5,194.833 248.5,201.5C 247.5,201.5 246.5,201.5 245.5,201.5C 245.5,198.5 245.5,195.5 245.5,192.5C 242.833,192.5 240.167,192.5 237.5,192.5C 237.5,195.5 237.5,198.5 237.5,201.5C 236.5,201.5 235.5,201.5 234.5,201.5C 234.5,194.833 234.5,188.167 234.5,181.5 Z"/></g>
<g><path style="opacity:1" fill="#fefffe" d="M 266.5,181.5 C 271.167,181.5 275.833,181.5 280.5,181.5C 280.5,182.5 280.5,183.5 280.5,184.5C 276.833,184.5 273.167,184.5 269.5,184.5C 269.5,186.167 269.5,187.833 269.5,189.5C 272.833,189.5 276.167,189.5 279.5,189.5C 279.5,190.5 279.5,191.5 279.5,192.5C 276.167,192.5 272.833,192.5 269.5,192.5C 269.5,194.5 269.5,196.5 269.5,198.5C 273.167,198.5 276.833,198.5 280.5,198.5C 280.5,199.5 280.5,200.5 280.5,201.5C 275.833,201.5 271.167,201.5 266.5,201.5C 266.5,194.833 266.5,188.167 266.5,181.5 Z"/></g>
<g><path style="opacity:1" fill="#c6202e" d="M 375.5,184.5 C 381.67,185.162 384.17,188.495 383,194.5C 382.311,195.357 381.478,196.023 380.5,196.5C 377.349,193.85 374.349,191.016 371.5,188C 372.731,186.595 374.064,185.429 375.5,184.5 Z"/></g>
<g><path style="opacity:1" fill="#fefffe" d="M 347.5,192.5 C 353.343,191.675 357.843,193.675 361,198.5C 361.49,199.793 361.657,201.127 361.5,202.5C 359.833,202.5 358.167,202.5 356.5,202.5C 356.349,199.15 354.515,197.484 351,197.5C 345.084,198.254 344.25,200.421 348.5,204C 355.718,203.759 360.051,207.092 361.5,214C 360.966,218.203 358.632,220.87 354.5,222C 349.657,223.214 345.49,222.047 342,218.5C 340.872,216.655 340.372,214.655 340.5,212.5C 342.167,212.5 343.833,212.5 345.5,212.5C 345.651,215.85 347.485,217.516 351,217.5C 356.916,216.746 357.75,214.579 353.5,211C 347.676,211.077 343.509,208.577 341,203.5C 340.087,197.99 342.254,194.324 347.5,192.5 Z"/></g>
<g><path style="opacity:1" fill="#fefffe" d="M 239.5,214.5 C 245.412,213.609 249.079,215.942 250.5,221.5C 248.156,220.017 245.656,218.684 243,217.5C 240.63,217.6 238.797,218.6 237.5,220.5C 237.977,221.478 238.643,222.311 239.5,223C 243.558,223.378 247.058,224.878 250,227.5C 250.682,231.18 249.182,233.68 245.5,235C 239.588,236.384 235.921,234.218 234.5,228.5C 236.906,230.211 239.573,231.545 242.5,232.5C 247.057,232.172 248.057,230.339 245.5,227C 241.231,227.212 237.731,225.712 235,222.5C 234.533,218.785 236.033,216.119 239.5,214.5 Z"/></g>
<g><path style="opacity:1" fill="#fefffe" d="M 200.5,215.5 C 206.167,215.5 211.833,215.5 217.5,215.5C 217.5,216.5 217.5,217.5 217.5,218.5C 215.167,218.5 212.833,218.5 210.5,218.5C 210.5,224.167 210.5,229.833 210.5,235.5C 209.5,235.5 208.5,235.5 207.5,235.5C 207.5,229.833 207.5,224.167 207.5,218.5C 205.167,218.5 202.833,218.5 200.5,218.5C 200.5,217.5 200.5,216.5 200.5,215.5 Z"/></g>
<g><path style="opacity:1" fill="#fefffe" d="M 274.5,215.5 C 278.54,215.19 281.873,216.524 284.5,219.5C 281.902,220.568 279.402,220.235 277,218.5C 271.226,220.378 269.559,224.044 272,229.5C 273.182,231.357 274.849,232.357 277,232.5C 279.41,231.252 281.91,230.252 284.5,229.5C 284.374,232.595 282.707,234.428 279.5,235C 270.555,235.637 266.722,231.471 268,222.5C 269.018,218.985 271.185,216.652 274.5,215.5 Z"/></g>
<g><path style="opacity:1" fill="#fefffe" d="M 307.5,215.5 C 309.288,215.215 310.955,215.548 312.5,216.5C 314.908,222.724 316.908,229.057 318.5,235.5C 317.5,235.5 316.5,235.5 315.5,235.5C 315.427,232.05 313.594,230.717 310,231.5C 306.406,230.717 304.573,232.05 304.5,235.5C 303.5,235.5 302.5,235.5 301.5,235.5C 303.297,228.774 305.297,222.108 307.5,215.5 Z"/></g>
<g><path style="opacity:1" fill="#c6202e" d="M 309.5,218.5 C 311.198,221.231 312.531,224.231 313.5,227.5C 311.167,228.833 308.833,228.833 306.5,227.5C 307.705,224.55 308.705,221.55 309.5,218.5 Z"/></g>
</svg>
