<?xml version="1.0" encoding="UTF-8"?>
<!DOCTYPE svg PUBLIC "-//W3C//DTD SVG 1.1//EN" "http://www.w3.org/Graphics/SVG/1.1/DTD/svg11.dtd">
<svg xmlns="http://www.w3.org/2000/svg" version="1.1" width="571px" height="300px" style="shape-rendering:geometricPrecision; text-rendering:geometricPrecision; image-rendering:optimizeQuality; fill-rule:evenodd; clip-rule:evenodd" xmlns:xlink="http://www.w3.org/1999/xlink">
<g><path style="opacity:1" fill="#be8d2b" d="M -0.5,-0.5 C 189.833,-0.5 380.167,-0.5 570.5,-0.5C 570.5,99.5 570.5,199.5 570.5,299.5C 380.167,299.5 189.833,299.5 -0.5,299.5C -0.5,199.5 -0.5,99.5 -0.5,-0.5 Z"/></g>
<g><path style="opacity:1" fill="#fefffe" d="M 219.5,40.5 C 261.168,40.3333 302.835,40.5 344.5,41C 345.308,41.3076 345.975,41.8076 346.5,42.5C 347.14,51.1385 347.807,59.8052 348.5,68.5C 362.921,74.5814 367.088,84.9147 361,99.5C 357.813,103.853 353.646,106.853 348.5,108.5C 347.348,111.106 347.182,113.773 348,116.5C 356.543,124.709 364.71,133.209 372.5,142C 371.792,144.723 370.125,145.723 367.5,145C 361,138.5 354.5,132 348,125.5C 347.333,134.167 347.333,142.833 348,151.5C 356.543,159.709 364.71,168.209 372.5,177C 371.792,179.723 370.125,180.723 367.5,180C 359.652,171.985 351.652,164.152 343.5,156.5C 335.139,164.696 326.639,172.696 318,180.5C 315.277,179.792 314.277,178.125 315,175.5C 323,167.5 331,159.5 339,151.5C 339.667,142.833 339.667,134.167 339,125.5C 332.5,132 326,138.5 319.5,145C 316.875,145.723 315.208,144.723 314.5,142C 322.29,133.209 330.457,124.709 339,116.5C 340.794,110.44 338.628,106.94 332.5,106C 322.762,97.6561 320.928,87.8228 327,76.5C 330.082,72.7125 333.916,70.0458 338.5,68.5C 339.496,62.2015 339.83,55.8682 339.5,49.5C 309.165,49.3334 278.832,49.5 248.5,50C 241,57.5 233.5,65 226,72.5C 225.5,116.499 225.333,160.499 225.5,204.5C 229.514,204.334 233.514,204.501 237.5,205C 240.306,206.305 241.14,208.472 240,211.5C 239.25,212.126 238.416,212.626 237.5,213C 226.167,213.667 214.833,213.667 203.5,213C 200.694,211.695 199.86,209.528 201,206.5C 201.75,205.874 202.584,205.374 203.5,205C 207.821,204.501 212.154,204.334 216.5,204.5C 216.333,150.832 216.5,97.1656 217,43.5C 217.698,42.3094 218.531,41.3094 219.5,40.5 Z"/></g>
<g><path style="opacity:1" fill="#be8d2b" d="M 225.5,49.5 C 229.514,49.3345 233.514,49.5012 237.5,50C 233.667,53.8333 229.833,57.6667 226,61.5C 225.501,57.5138 225.334,53.5138 225.5,49.5 Z"/></g>
<g><path style="opacity:1" fill="#be8d2b" d="M 338.5,76.5 C 351.32,75.1527 356.82,80.8194 355,93.5C 351.345,100.07 345.845,102.237 338.5,100C 331.93,96.3449 329.763,90.8449 332,83.5C 333.694,80.6424 335.861,78.309 338.5,76.5 Z"/></g>
<g><path style="opacity:1" fill="#fefffe" d="M 203.5,241.5 C 214.838,241.333 226.172,241.5 237.5,242C 240.306,243.305 241.14,245.472 240,248.5C 239.25,249.126 238.416,249.626 237.5,250C 226.167,250.667 214.833,250.667 203.5,250C 201.354,249.521 200.354,248.188 200.5,246C 200.557,243.791 201.557,242.291 203.5,241.5 Z"/></g>
<g><path style="opacity:1" fill="#fefffe" d="M 248.5,241.5 C 259.838,241.333 271.172,241.5 282.5,242C 285.306,243.305 286.14,245.472 285,248.5C 284.25,249.126 283.416,249.626 282.5,250C 271.167,250.667 259.833,250.667 248.5,250C 246.354,249.521 245.354,248.188 245.5,246C 245.557,243.791 246.557,242.291 248.5,241.5 Z"/></g>
<g><path style="opacity:1" fill="#fefffe" d="M 293.5,241.5 C 304.838,241.333 316.172,241.5 327.5,242C 330.306,243.305 331.14,245.472 330,248.5C 329.25,249.126 328.416,249.626 327.5,250C 316.167,250.667 304.833,250.667 293.5,250C 291.354,249.521 290.354,248.188 290.5,246C 290.557,243.791 291.557,242.291 293.5,241.5 Z"/></g>
<g><path style="opacity:1" fill="#fefffe" d="M 338.5,241.5 C 349.838,241.333 361.172,241.5 372.5,242C 375.306,243.305 376.14,245.472 375,248.5C 374.25,249.126 373.416,249.626 372.5,250C 361.167,250.667 349.833,250.667 338.5,250C 336.354,249.521 335.354,248.188 335.5,246C 335.557,243.791 336.557,242.291 338.5,241.5 Z"/></g>
</svg>
