<?xml version="1.0" encoding="UTF-8"?>
<!DOCTYPE svg PUBLIC "-//W3C//DTD SVG 1.1//EN" "http://www.w3.org/Graphics/SVG/1.1/DTD/svg11.dtd">
<svg xmlns="http://www.w3.org/2000/svg" version="1.1" width="571px" height="300px" style="shape-rendering:geometricPrecision; text-rendering:geometricPrecision; image-rendering:optimizeQuality; fill-rule:evenodd; clip-rule:evenodd" xmlns:xlink="http://www.w3.org/1999/xlink">
<g><path style="opacity:1" fill="#1f97d4" d="M -0.5,-0.5 C 189.833,-0.5 380.167,-0.5 570.5,-0.5C 570.5,99.5 570.5,199.5 570.5,299.5C 380.167,299.5 189.833,299.5 -0.5,299.5C -0.5,199.5 -0.5,99.5 -0.5,-0.5 Z"/></g>
<g><path style="opacity:1" fill="#fefffe" d="M 200.5,41.5 C 225.898,41.028 251.231,41.528 276.5,43C 281.445,45.9456 284.945,50.1122 287,55.5C 287.5,63.8267 287.666,72.16 287.5,80.5C 291.514,80.6655 295.514,80.4988 299.5,80C 306.301,67.2291 314.134,66.3958 323,77.5C 327.876,88.3239 327.543,98.9905 322,109.5C 312.557,118.507 305.057,117.007 299.5,105C 295.514,104.501 291.514,104.334 287.5,104.5C 287.666,112.507 287.5,120.507 287,128.5C 284.194,134.97 279.694,139.804 273.5,143C 266.174,143.5 258.841,143.666 251.5,143.5C 251.183,140.428 251.516,137.428 252.5,134.5C 263.285,129.048 265.285,121.381 258.5,111.5C 252.509,106.25 245.509,103.916 237.5,104.5C 226.982,103.843 218.815,107.843 213,116.5C 211.135,125.102 214.302,131.102 222.5,134.5C 223.484,137.428 223.817,140.428 223.5,143.5C 215.826,143.666 208.159,143.5 200.5,143C 193.974,140.474 189.474,135.974 187,129.5C 186.333,104.833 186.333,80.1667 187,55.5C 189.713,48.9558 194.213,44.2892 200.5,41.5 Z"/></g>
<g><path style="opacity:1" fill="#fefffe" d="M 303.5,41.5 C 328.169,41.3334 352.836,41.5 377.5,42C 382.888,44.0551 387.054,47.5551 390,52.5C 391.139,65.6005 391.639,78.7671 391.5,92C 391.639,105.233 391.139,118.4 390,131.5C 387.054,136.445 382.888,139.945 377.5,142C 369.173,142.5 360.84,142.666 352.5,142.5C 352.334,146.514 352.501,150.514 353,154.5C 365.771,161.301 366.604,169.134 355.5,178C 344.676,182.876 334.009,182.543 323.5,177C 314.493,167.557 315.993,160.057 328,154.5C 328.499,150.514 328.666,146.514 328.5,142.5C 320.493,142.666 312.493,142.5 304.5,142C 298.03,139.194 293.196,134.694 290,128.5C 289.5,121.174 289.334,113.841 289.5,106.5C 292.572,106.183 295.572,106.516 298.5,107.5C 303.952,118.285 311.619,120.285 321.5,113.5C 326.75,107.509 329.084,100.509 328.5,92.5C 329.157,81.982 325.157,73.8154 316.5,68C 307.898,66.1354 301.898,69.302 298.5,77.5C 295.572,78.4841 292.572,78.8174 289.5,78.5C 289.334,70.8261 289.5,63.1594 290,55.5C 292.713,48.9558 297.213,44.2892 303.5,41.5 Z"/></g>
<g><path style="opacity:1" fill="#1f97d4" d="M 201.5,49.5 C 225.169,49.3334 248.836,49.5 272.5,50C 275.728,51.5629 277.895,54.0629 279,57.5C 279.5,67.828 279.666,78.1613 279.5,88.5C 288.525,88.8315 297.525,88.4982 306.5,87.5C 307.145,84.7717 307.979,82.1051 309,79.5C 312.159,76.6593 314.492,77.326 316,81.5C 318,88.8333 318,96.1667 316,103.5C 314.492,107.674 312.159,108.341 309,105.5C 307.979,102.895 307.145,100.228 306.5,97.5C 297.525,96.5018 288.525,96.1685 279.5,96.5C 279.667,107.172 279.5,117.839 279,128.5C 275.984,133.758 271.484,135.925 265.5,135C 274.74,118.72 270.74,106.72 253.5,99C 238.415,94.0898 224.415,96.0898 211.5,105C 203.003,114.465 202.337,124.465 209.5,135C 203.123,136.227 198.29,134.061 195,128.5C 194.333,104.833 194.333,81.1667 195,57.5C 196.305,54.0386 198.471,51.372 201.5,49.5 Z"/></g>
<g><path style="opacity:1" fill="#1f97d4" d="M 304.5,49.5 C 328.169,49.3334 351.836,49.5 375.5,50C 378.937,51.1049 381.437,53.2716 383,56.5C 383.667,80.1667 383.667,103.833 383,127.5C 381.437,130.728 378.937,132.895 375.5,134C 365.172,134.5 354.839,134.666 344.5,134.5C 344.168,143.525 344.502,152.525 345.5,161.5C 348.228,162.145 350.895,162.979 353.5,164C 356.341,167.159 355.674,169.492 351.5,171C 344.167,173 336.833,173 329.5,171C 325.326,169.492 324.659,167.159 327.5,164C 330.105,162.979 332.772,162.145 335.5,161.5C 336.498,152.525 336.832,143.525 336.5,134.5C 325.828,134.667 315.161,134.5 304.5,134C 299.242,130.984 297.075,126.484 298,120.5C 310.856,128.679 321.856,126.679 331,114.5C 338.333,99.8333 338.333,85.1667 331,70.5C 321.885,58.3058 310.885,56.3058 298,64.5C 296.908,58.0223 299.075,53.0223 304.5,49.5 Z"/></g>
<g><path style="opacity:1" fill="#fefffe" d="M 231.5,106.5 C 239.643,105.649 247.31,107.149 254.5,111C 263.507,120.443 262.007,127.943 250,133.5C 249.501,137.486 249.334,141.486 249.5,145.5C 278.795,140.131 291.462,152.131 287.5,181.5C 284.428,181.817 281.428,181.484 278.5,180.5C 273.048,169.715 265.381,167.715 255.5,174.5C 250.25,180.491 247.916,187.491 248.5,195.5C 247.843,206.018 251.843,214.185 260.5,220C 269.102,221.865 275.102,218.698 278.5,210.5C 281.428,209.516 284.428,209.183 287.5,209.5C 287.666,217.174 287.5,224.841 287,232.5C 284.474,239.026 279.974,243.526 273.5,246C 248.833,246.667 224.167,246.667 199.5,246C 192.974,243.474 188.474,238.974 186,232.5C 185.028,207.104 185.362,181.771 187,156.5C 189.946,151.555 194.112,148.055 199.5,146C 208.16,145.5 216.827,145.334 225.5,145.5C 225.666,141.486 225.499,137.486 225,133.5C 213.984,128.381 212.151,121.214 219.5,112C 223.284,109.471 227.284,107.638 231.5,106.5 Z"/></g>
<g><path style="opacity:1" fill="#1f97d4" d="M 231.5,115.5 C 237.232,115.283 242.899,115.783 248.5,117C 252.674,118.508 253.341,120.841 250.5,124C 247.895,125.021 245.228,125.855 242.5,126.5C 241.502,135.475 241.168,144.475 241.5,153.5C 251.839,153.334 262.172,153.5 272.5,154C 277.758,157.016 279.925,161.516 279,167.5C 261.019,157.979 248.685,162.979 242,182.5C 237.778,197.593 240.611,211.093 250.5,223C 259.87,230.124 269.37,230.291 279,223.5C 280.227,229.877 278.061,234.71 272.5,238C 248.833,238.667 225.167,238.667 201.5,238C 198.063,236.895 195.563,234.728 194,231.5C 193.333,207.833 193.333,184.167 194,160.5C 195.563,157.272 198.063,155.105 201.5,154C 212.161,153.5 222.828,153.333 233.5,153.5C 233.832,144.475 233.498,135.475 232.5,126.5C 219.637,123.32 219.304,119.653 231.5,115.5 Z"/></g>
<g><path style="opacity:1" fill="#fefffe" d="M 304.5,144.5 C 311.833,144.5 319.167,144.5 326.5,144.5C 326.817,147.572 326.484,150.572 325.5,153.5C 314.715,158.952 312.715,166.619 319.5,176.5C 325.491,181.75 332.491,184.084 340.5,183.5C 351.018,184.157 359.185,180.157 365,171.5C 366.865,162.898 363.698,156.898 355.5,153.5C 354.516,150.572 354.183,147.572 354.5,144.5C 362.174,144.334 369.841,144.5 377.5,145C 384.026,147.526 388.526,152.026 391,158.5C 391.667,183.167 391.667,207.833 391,232.5C 388.474,239.026 383.974,243.526 377.5,246C 352.104,246.972 326.771,246.638 301.5,245C 295.939,242.438 292.106,238.272 290,232.5C 289.5,224.173 289.334,215.84 289.5,207.5C 285.486,207.334 281.486,207.501 277.5,208C 270.699,220.771 262.866,221.604 254,210.5C 249.124,199.676 249.457,189.009 255,178.5C 264.443,169.493 271.943,170.993 277.5,183C 281.486,183.499 285.486,183.666 289.5,183.5C 289.334,175.493 289.5,167.493 290,159.5C 293.021,152.647 297.855,147.647 304.5,144.5 Z"/></g>
<g><path style="opacity:1" fill="#1f97d4" d="M 306.5,152.5 C 308.527,152.338 310.527,152.505 312.5,153C 303.26,169.28 307.26,181.28 324.5,189C 339.585,193.91 353.585,191.91 366.5,183C 374.997,173.535 375.663,163.535 368.5,153C 374.877,151.773 379.71,153.939 383,159.5C 383.667,183.167 383.667,206.833 383,230.5C 381.895,233.937 379.728,236.437 376.5,238C 352.833,238.667 329.167,238.667 305.5,238C 302.272,236.437 300.105,233.937 299,230.5C 298.673,220.15 298.173,209.817 297.5,199.5C 288.475,199.168 279.475,199.502 270.5,200.5C 269.855,203.228 269.021,205.895 268,208.5C 264.841,211.341 262.508,210.674 261,206.5C 259,199.167 259,191.833 261,184.5C 262.508,180.326 264.841,179.659 268,182.5C 269.021,185.105 269.855,187.772 270.5,190.5C 279.475,191.498 288.475,191.832 297.5,191.5C 298.072,180.841 298.572,170.175 299,159.5C 300.742,156.254 303.242,153.921 306.5,152.5 Z"/></g>
</svg>
