<?xml version="1.0" encoding="UTF-8"?>
<!DOCTYPE svg PUBLIC "-//W3C//DTD SVG 1.1//EN" "http://www.w3.org/Graphics/SVG/1.1/DTD/svg11.dtd">
<svg xmlns="http://www.w3.org/2000/svg" version="1.1" width="571px" height="300px" style="shape-rendering:geometricPrecision; text-rendering:geometricPrecision; image-rendering:optimizeQuality; fill-rule:evenodd; clip-rule:evenodd" xmlns:xlink="http://www.w3.org/1999/xlink">
<g><path style="opacity:1" fill="#58ba47" d="M -0.5,-0.5 C 189.833,-0.5 380.167,-0.5 570.5,-0.5C 570.5,99.5 570.5,199.5 570.5,299.5C 380.167,299.5 189.833,299.5 -0.5,299.5C -0.5,199.5 -0.5,99.5 -0.5,-0.5 Z"/></g>
<g><path style="opacity:1" fill="#fefffe" d="M 324.5,39.5 C 353.67,38.1549 374.504,50.4882 387,76.5C 393.588,96.9717 390.255,115.638 377,132.5C 369.622,138.366 362.622,144.699 356,151.5C 351.887,157.391 348.554,163.724 346,170.5C 344.043,178.625 341.71,186.625 339,194.5C 334.743,200.491 329.243,201.991 322.5,199C 317.558,194.691 315.224,189.191 315.5,182.5C 315.871,165.319 320.705,149.653 330,135.5C 337.636,126.863 345.636,118.53 354,110.5C 362.458,93.5402 358.291,80.7069 341.5,72C 324.412,68.3791 313.079,74.8791 307.5,91.5C 307.472,98.4127 305.639,104.746 302,110.5C 299.603,112.782 296.769,114.116 293.5,114.5C 298.342,144.882 303.175,175.215 308,205.5C 304.359,207.165 300.525,208.332 296.5,209C 268.642,214.372 240.809,219.872 213,225.5C 211.893,225.415 210.893,225.081 210,224.5C 203.014,187.588 196.348,150.588 190,113.5C 189.333,110.5 189.333,107.5 190,104.5C 217.648,98.8079 245.481,93.8079 273.5,89.5C 276.671,67.8257 288.337,52.6591 308.5,44C 313.874,42.1604 319.207,40.6604 324.5,39.5 Z"/></g>
<g><path style="opacity:1" fill="#58ba46" d="M 270.5,97.5 C 272.324,100.063 273.657,103.063 274.5,106.5C 261.611,109.427 248.611,111.927 235.5,114C 233.882,116.8 234.715,118.3 238,118.5C 251.359,116.274 264.693,113.94 278,111.5C 280.22,113.193 282.72,114.193 285.5,114.5C 289.735,143.242 294.401,171.909 299.5,200.5C 272.255,205.382 245.088,210.716 218,216.5C 217.228,216.355 216.561,216.022 216,215.5C 210.152,180.761 203.985,146.094 197.5,111.5C 198.025,110.808 198.692,110.308 199.5,110C 223.379,106.244 247.046,102.077 270.5,97.5 Z"/></g>
<g><path style="opacity:1" fill="#fefffe" d="M 215.5,109.5 C 231.536,110.358 237.036,118.358 232,133.5C 223.333,142.833 214.667,142.833 206,133.5C 201.24,122.27 204.407,114.27 215.5,109.5 Z"/></g>
<g><path style="opacity:1" fill="#58ba46" d="M 216.5,114.5 C 225.822,114.652 229.989,119.319 229,128.5C 225.578,135.296 220.411,137.129 213.5,134C 206.305,126.153 207.305,119.653 216.5,114.5 Z"/></g>
<g><path style="opacity:1" fill="#fefffe" d="M 277.5,117.5 C 279.199,117.34 280.866,117.506 282.5,118C 283.972,121.552 282.638,123.218 278.5,123C 264.513,125.443 250.513,127.443 236.5,129C 235.167,127.667 235.167,126.333 236.5,125C 250.341,122.695 264.008,120.195 277.5,117.5 Z"/></g>
<g><path style="opacity:1" fill="#fefffe" d="M 211.5,120.5 C 212.552,120.351 213.552,120.517 214.5,121C 216.35,123.018 218.35,124.851 220.5,126.5C 221.701,124.091 223.367,122.091 225.5,120.5C 225.833,120.833 226.167,121.167 226.5,121.5C 224.478,124.897 223.478,128.564 223.5,132.5C 219.019,130.541 215.185,127.541 212,123.5C 211.517,122.552 211.351,121.552 211.5,120.5 Z"/></g>
<g><path style="opacity:1" fill="#fefffe" d="M 281.5,139.5 C 283.199,139.34 284.866,139.506 286.5,140C 287.972,143.552 286.638,145.218 282.5,145C 268.513,147.443 254.513,149.443 240.5,151C 239.167,149.667 239.167,148.333 240.5,147C 254.341,144.695 268.008,142.195 281.5,139.5 Z"/></g>
<g><path style="opacity:1" fill="#fefffe" d="M 220.5,142.5 C 236.536,143.358 242.036,151.358 237,166.5C 228.333,175.833 219.667,175.833 211,166.5C 206.24,155.27 209.407,147.27 220.5,142.5 Z"/></g>
<g><path style="opacity:1" fill="#58ba46" d="M 221.5,147.5 C 230.822,147.652 234.989,152.319 234,161.5C 230.578,168.296 225.411,170.129 218.5,167C 211.305,159.153 212.305,152.653 221.5,147.5 Z"/></g>
<g><path style="opacity:1" fill="#fefffe" d="M 282.5,150.5 C 284.199,150.34 285.866,150.506 287.5,151C 288.972,154.552 287.638,156.218 283.5,156C 269.513,158.443 255.513,160.443 241.5,162C 240.167,160.667 240.167,159.333 241.5,158C 255.341,155.695 269.008,153.195 282.5,150.5 Z"/></g>
<g><path style="opacity:1" fill="#fefffe" d="M 216.5,153.5 C 217.552,153.351 218.552,153.517 219.5,154C 221.35,156.018 223.35,157.851 225.5,159.5C 226.701,157.091 228.367,155.091 230.5,153.5C 230.833,153.833 231.167,154.167 231.5,154.5C 229.478,157.897 228.478,161.564 228.5,165.5C 224.019,163.541 220.185,160.541 217,156.5C 216.517,155.552 216.351,154.552 216.5,153.5 Z"/></g>
<g><path style="opacity:1" fill="#fefffe" d="M 287.5,173.5 C 289.199,173.34 290.866,173.506 292.5,174C 293.972,177.552 292.638,179.218 288.5,179C 274.513,181.443 260.513,183.443 246.5,185C 245.167,183.667 245.167,182.333 246.5,181C 260.341,178.695 274.008,176.195 287.5,173.5 Z"/></g>
<g><path style="opacity:1" fill="#fefffe" d="M 226.5,176.5 C 242.536,177.358 248.036,185.358 243,200.5C 234.333,209.833 225.667,209.833 217,200.5C 212.24,189.27 215.407,181.27 226.5,176.5 Z"/></g>
<g><path style="opacity:1" fill="#58ba46" d="M 227.5,181.5 C 236.822,181.652 240.989,186.319 240,195.5C 236.578,202.296 231.411,204.129 224.5,201C 217.305,193.153 218.305,186.653 227.5,181.5 Z"/></g>
<g><path style="opacity:1" fill="#fefffe" d="M 288.5,184.5 C 290.199,184.34 291.866,184.506 293.5,185C 294.972,188.552 293.638,190.218 289.5,190C 275.513,192.443 261.513,194.443 247.5,196C 246.167,194.667 246.167,193.333 247.5,192C 261.341,189.695 275.008,187.195 288.5,184.5 Z"/></g>
<g><path style="opacity:1" fill="#fefffe" d="M 222.5,187.5 C 223.552,187.351 224.552,187.517 225.5,188C 227.35,190.018 229.35,191.851 231.5,193.5C 232.701,191.091 234.367,189.091 236.5,187.5C 236.833,187.833 237.167,188.167 237.5,188.5C 235.478,191.897 234.478,195.564 234.5,199.5C 230.019,197.541 226.185,194.541 223,190.5C 222.517,189.552 222.351,188.552 222.5,187.5 Z"/></g>
<g><path style="opacity:1" fill="#fefffe" d="M 324.5,210.5 C 339.646,210.146 346.813,217.479 346,232.5C 342.617,242.945 335.45,247.445 324.5,246C 311.785,241.066 307.952,232.233 313,219.5C 316.045,215.406 319.878,212.406 324.5,210.5 Z"/></g>
</svg>
