<?xml version="1.0" encoding="UTF-8"?>
<!DOCTYPE svg PUBLIC "-//W3C//DTD SVG 1.1//EN" "http://www.w3.org/Graphics/SVG/1.1/DTD/svg11.dtd">
<svg xmlns="http://www.w3.org/2000/svg" version="1.1" width="571px" height="300px" style="shape-rendering:geometricPrecision; text-rendering:geometricPrecision; image-rendering:optimizeQuality; fill-rule:evenodd; clip-rule:evenodd" xmlns:xlink="http://www.w3.org/1999/xlink">
<g><path style="opacity:1" fill="#5dcdd1" d="M -0.5,-0.5 C 189.833,-0.5 380.167,-0.5 570.5,-0.5C 570.5,99.5 570.5,199.5 570.5,299.5C 380.167,299.5 189.833,299.5 -0.5,299.5C -0.5,199.5 -0.5,99.5 -0.5,-0.5 Z"/></g>
<g><path style="opacity:1" fill="#fefffe" d="M 277.5,41.5 C 310.66,38.499 336.16,50.8324 354,78.5C 368.004,108.414 364.837,136.248 344.5,162C 353.198,179.229 362.031,196.396 371,213.5C 372.5,218.667 370.667,220.5 365.5,219C 354.785,199.738 344.451,180.238 334.5,160.5C 359.783,133.197 361.95,104.197 341,73.5C 317.211,48.1423 289.377,42.6423 257.5,57C 227.958,75.9644 218.458,102.131 229,135.5C 229.667,137.5 229.667,139.5 229,141.5C 224.286,149.765 219.453,157.932 214.5,166C 218.556,170.787 223.723,173.954 230,175.5C 230.499,180.489 230.666,185.489 230.5,190.5C 233.561,190.444 235.728,191.778 237,194.5C 237.459,200.921 238.459,207.254 240,213.5C 242.909,216.394 246.409,217.227 250.5,216C 258.205,214.157 265.871,212.157 273.5,210C 276.5,209.333 279.5,209.333 282.5,210C 288.4,220.967 293.9,232.133 299,243.5C 300.5,248.667 298.667,250.5 293.5,249C 287.809,238.786 282.809,228.286 278.5,217.5C 267.788,220.347 256.955,222.68 246,224.5C 238.634,224.826 233.968,221.493 232,214.5C 230.725,208.518 229.559,202.518 228.5,196.5C 226.259,195.968 224.759,194.635 224,192.5C 222.97,188.227 222.303,183.894 222,179.5C 217.25,177.879 213.083,175.379 209.5,172C 207.571,168.744 207.071,165.244 208,161.5C 212.692,154.116 216.859,146.449 220.5,138.5C 209.191,95.9625 223.191,65.1291 262.5,46C 267.577,44.32 272.577,42.82 277.5,41.5 Z"/></g>
<g><path style="opacity:1" fill="#fefffe" d="M 310.5,84.5 C 314.182,84.3347 317.848,84.5014 321.5,85C 321.663,91.6101 323.663,92.6101 327.5,88C 331.461,89.7702 334.794,92.6036 337.5,96.5C 336.352,98.1487 335.019,99.6487 333.5,101C 335.764,101.236 337.931,101.736 340,102.5C 340.667,106.167 340.667,109.833 340,113.5C 337.931,114.264 335.764,114.764 333.5,115C 335.638,116.422 336.805,118.255 337,120.5C 334.318,123.35 331.484,126.016 328.5,128.5C 326.833,127.167 325.167,125.833 323.5,124.5C 322.779,126.686 322.113,128.853 321.5,131C 317.833,131.667 314.167,131.667 310.5,131C 310.337,124.39 308.337,123.39 304.5,128C 300.539,126.23 297.206,123.396 294.5,119.5C 295.648,117.851 296.981,116.351 298.5,115C 296.236,114.764 294.069,114.264 292,113.5C 291.333,109.833 291.333,106.167 292,102.5C 294.069,101.736 296.236,101.236 298.5,101C 296.362,99.5784 295.195,97.745 295,95.5C 297.682,92.6503 300.516,89.9836 303.5,87.5C 305.167,88.8333 306.833,90.1667 308.5,91.5C 309.275,89.1568 309.942,86.8234 310.5,84.5 Z"/></g>
<g><path style="opacity:1" fill="#5dcdd0" d="M 312.5,87.5 C 314.833,87.5 317.167,87.5 319.5,87.5C 319.924,95.6543 322.924,96.9876 328.5,91.5C 331.099,92.899 332.599,94.899 333,97.5C 329.495,99.2599 328.995,101.427 331.5,104C 333.473,104.495 335.473,104.662 337.5,104.5C 337.5,106.833 337.5,109.167 337.5,111.5C 334.092,110.828 331.425,111.828 329.5,114.5C 330.48,115.981 331.647,117.315 333,118.5C 331.558,124.65 328.725,125.483 324.5,121C 320.422,121.617 318.755,124.117 319.5,128.5C 317.167,128.5 314.833,128.5 312.5,128.5C 312.076,120.346 309.076,119.012 303.5,124.5C 300.901,123.101 299.401,121.101 299,118.5C 302.505,116.74 303.005,114.573 300.5,112C 298.527,111.505 296.527,111.338 294.5,111.5C 294.5,109.167 294.5,106.833 294.5,104.5C 297.908,105.172 300.575,104.172 302.5,101.5C 301.52,100.019 300.353,98.6853 299,97.5C 300.442,91.3498 303.275,90.5165 307.5,95C 311.578,94.3827 313.245,91.8827 312.5,87.5 Z"/></g>
<g><path style="opacity:1" fill="#fefffe" d="M 313.5,97.5 C 324.164,97.99 327.997,103.323 325,113.5C 319,120.167 313,120.167 307,113.5C 304.209,106.022 306.375,100.689 313.5,97.5 Z"/></g>
<g><path style="opacity:1" fill="#5dcdd0" d="M 313.5,100.5 C 320.657,100.155 323.824,103.488 323,110.5C 318.333,117.167 313.667,117.167 309,110.5C 308.077,106.017 309.577,102.683 313.5,100.5 Z"/></g>
<g><path style="opacity:1" fill="#fefffe" d="M 264.5,110.5 C 268.182,110.335 271.848,110.501 275.5,111C 275.663,117.61 277.663,118.61 281.5,114C 285.461,115.77 288.794,118.604 291.5,122.5C 290.352,124.149 289.019,125.649 287.5,127C 289.764,127.236 291.931,127.736 294,128.5C 294.667,132.167 294.667,135.833 294,139.5C 291.931,140.264 289.764,140.764 287.5,141C 289.638,142.422 290.805,144.255 291,146.5C 288.318,149.35 285.484,152.016 282.5,154.5C 280.833,153.167 279.167,151.833 277.5,150.5C 276.779,152.686 276.113,154.853 275.5,157C 271.833,157.667 268.167,157.667 264.5,157C 264.337,150.39 262.337,149.39 258.5,154C 254.539,152.23 251.206,149.396 248.5,145.5C 249.648,143.851 250.981,142.351 252.5,141C 250.236,140.764 248.069,140.264 246,139.5C 245.333,135.833 245.333,132.167 246,128.5C 248.069,127.736 250.236,127.236 252.5,127C 250.362,125.578 249.195,123.745 249,121.5C 251.682,118.65 254.516,115.984 257.5,113.5C 259.167,114.833 260.833,116.167 262.5,117.5C 263.275,115.157 263.942,112.823 264.5,110.5 Z"/></g>
<g><path style="opacity:1" fill="#5dcdd0" d="M 266.5,113.5 C 268.833,113.5 271.167,113.5 273.5,113.5C 273.924,121.654 276.924,122.988 282.5,117.5C 285.099,118.899 286.599,120.899 287,123.5C 283.495,125.26 282.995,127.427 285.5,130C 287.473,130.495 289.473,130.662 291.5,130.5C 291.5,132.833 291.5,135.167 291.5,137.5C 288.092,136.828 285.425,137.828 283.5,140.5C 284.48,141.981 285.647,143.315 287,144.5C 285.558,150.65 282.725,151.483 278.5,147C 274.422,147.617 272.755,150.117 273.5,154.5C 271.167,154.5 268.833,154.5 266.5,154.5C 266.076,146.346 263.076,145.012 257.5,150.5C 254.901,149.101 253.401,147.101 253,144.5C 256.505,142.74 257.005,140.573 254.5,138C 252.527,137.505 250.527,137.338 248.5,137.5C 248.5,135.167 248.5,132.833 248.5,130.5C 251.908,131.172 254.575,130.172 256.5,127.5C 255.52,126.019 254.353,124.685 253,123.5C 254.442,117.35 257.275,116.517 261.5,121C 265.578,120.383 267.245,117.883 266.5,113.5 Z"/></g>
<g><path style="opacity:1" fill="#fefffe" d="M 267.5,123.5 C 278.164,123.99 281.997,129.323 279,139.5C 273,146.167 267,146.167 261,139.5C 258.209,132.022 260.375,126.689 267.5,123.5 Z"/></g>
<g><path style="opacity:1" fill="#5dcdd0" d="M 267.5,126.5 C 274.657,126.155 277.824,129.488 277,136.5C 272.333,143.167 267.667,143.167 263,136.5C 262.077,132.017 263.577,128.683 267.5,126.5 Z"/></g>
</svg>
