<?xml version="1.0" encoding="UTF-8"?>
<!DOCTYPE svg PUBLIC "-//W3C//DTD SVG 1.1//EN" "http://www.w3.org/Graphics/SVG/1.1/DTD/svg11.dtd">
<svg xmlns="http://www.w3.org/2000/svg" version="1.1" width="571px" height="300px" style="shape-rendering:geometricPrecision; text-rendering:geometricPrecision; image-rendering:optimizeQuality; fill-rule:evenodd; clip-rule:evenodd" xmlns:xlink="http://www.w3.org/1999/xlink">
<g><path style="opacity:1" fill="#a21b43" d="M -0.5,-0.5 C 189.833,-0.5 380.167,-0.5 570.5,-0.5C 570.5,99.5 570.5,199.5 570.5,299.5C 380.167,299.5 189.833,299.5 -0.5,299.5C -0.5,199.5 -0.5,99.5 -0.5,-0.5 Z"/></g>
<g><path style="opacity:1" fill="#fefffe" d="M 234.5,40.5 C 253.17,40.3334 271.836,40.5001 290.5,41C 296.255,42.6736 298.921,46.5069 298.5,52.5C 310.171,52.3335 321.838,52.5001 333.5,53C 336.728,54.5629 338.895,57.0629 340,60.5C 340.667,121.167 340.667,181.833 340,242.5C 338.5,245.333 336.333,247.5 333.5,249C 286.167,249.667 238.833,249.667 191.5,249C 188.667,247.5 186.5,245.333 185,242.5C 184.333,181.833 184.333,121.167 185,60.5C 186.105,57.0629 188.272,54.5629 191.5,53C 203.162,52.5001 214.829,52.3335 226.5,52.5C 226.197,46.4222 228.863,42.4222 234.5,40.5 Z"/></g>
<g><path style="opacity:1" fill="#a21b43" d="M 239.5,49.5 C 254.837,49.3334 270.17,49.5001 285.5,50C 289.79,52.5307 290.623,56.0307 288,60.5C 287.25,61.1258 286.416,61.6258 285.5,62C 270.167,62.6667 254.833,62.6667 239.5,62C 235.876,59.8387 234.709,56.672 236,52.5C 237.145,51.3636 238.312,50.3636 239.5,49.5 Z"/></g>
<g><path style="opacity:1" fill="#a21b43" d="M 195.5,62.5 C 205.839,62.3335 216.172,62.5002 226.5,63C 227.833,67 230.5,69.6667 234.5,71C 253.167,71.6667 271.833,71.6667 290.5,71C 294.5,69.6667 297.167,67 298.5,63C 309.077,62.1809 319.577,62.3476 330,63.5C 331.159,92.5823 331.659,121.749 331.5,151C 331.333,179.5 331.167,208 331,236.5C 330.626,237.416 330.126,238.25 329.5,239C 307.253,240.157 284.919,240.657 262.5,240.5C 240.833,240.333 219.167,240.167 197.5,240C 196.584,239.626 195.75,239.126 195,238.5C 193.841,209.418 193.341,180.251 193.5,151C 193.667,122.5 193.833,94 194,65.5C 194.513,64.4734 195.013,63.4734 195.5,62.5 Z"/></g>
<g><path style="opacity:1" fill="#fefffe" d="M 215.5,81.5 C 221.842,81.3338 228.175,81.5005 234.5,82C 235.416,82.3742 236.25,82.8742 237,83.5C 238.089,87.0484 238.589,90.715 238.5,94.5C 240.896,105.936 236.396,110.603 225,108.5C 221.833,108.333 218.667,108.167 215.5,108C 214.584,107.626 213.75,107.126 213,106.5C 211.409,99.608 211.076,92.608 212,85.5C 212.69,83.6498 213.856,82.3164 215.5,81.5 Z"/></g>
<g><path style="opacity:1" fill="#fefffe" d="M 247.5,81.5 C 268.169,81.3334 288.836,81.5 309.5,82C 313.5,85 313.5,88 309.5,91C 288.833,91.6667 268.167,91.6667 247.5,91C 243.649,87.8557 243.649,84.689 247.5,81.5 Z"/></g>
<g><path style="opacity:1" fill="#a21b43" d="M 218.5,86.5 C 222.846,86.3343 227.179,86.501 231.5,87C 232,87.5 232.5,88 233,88.5C 236.833,102 232,106.833 218.5,103C 218,102.5 217.5,102 217,101.5C 215.955,96.2145 216.455,91.2145 218.5,86.5 Z"/></g>
<g><path style="opacity:1" fill="#fefffe" d="M 355.5,88.5 C 366.172,88.3335 376.839,88.5002 387.5,89C 390.728,90.5629 392.895,93.0629 394,96.5C 394.667,136.5 394.667,176.5 394,216.5C 388.251,226.334 382.251,236.001 376,245.5C 373,250.833 370,250.833 367,245.5C 360.749,236.001 354.749,226.334 349,216.5C 348.333,176.5 348.333,136.5 349,96.5C 350.305,93.0386 352.471,90.372 355.5,88.5 Z"/></g>
<g><path style="opacity:1" fill="#fefffe" d="M 247.5,98.5 C 263.17,98.3334 278.837,98.5001 294.5,99C 298.5,102 298.5,105 294.5,108C 278.833,108.667 263.167,108.667 247.5,108C 243.649,104.856 243.649,101.689 247.5,98.5 Z"/></g>
<g><path style="opacity:1" fill="#a21b43" d="M 359.5,98.5 C 367.507,98.3336 375.507,98.5003 383.5,99C 384.126,99.7504 384.626,100.584 385,101.5C 385.5,136.498 385.667,171.498 385.5,206.5C 376.167,206.5 366.833,206.5 357.5,206.5C 357.333,171.498 357.5,136.498 358,101.5C 358.513,100.473 359.013,99.4734 359.5,98.5 Z"/></g>
<g><path style="opacity:1" fill="#fefffe" d="M 215.5,120.5 C 221.842,120.334 228.175,120.5 234.5,121C 235.416,121.374 236.25,121.874 237,122.5C 238.089,126.048 238.589,129.715 238.5,133.5C 240.896,144.936 236.396,149.603 225,147.5C 221.833,147.333 218.667,147.167 215.5,147C 214.584,146.626 213.75,146.126 213,145.5C 211.409,138.608 211.076,131.608 212,124.5C 212.69,122.65 213.856,121.316 215.5,120.5 Z"/></g>
<g><path style="opacity:1" fill="#fefffe" d="M 247.5,120.5 C 268.169,120.333 288.836,120.5 309.5,121C 313.5,124 313.5,127 309.5,130C 288.833,130.667 268.167,130.667 247.5,130C 243.649,126.856 243.649,123.689 247.5,120.5 Z"/></g>
<g><path style="opacity:1" fill="#a21b43" d="M 218.5,125.5 C 222.846,125.334 227.179,125.501 231.5,126C 232,126.5 232.5,127 233,127.5C 236.833,141 232,145.833 218.5,142C 218,141.5 217.5,141 217,140.5C 215.955,135.215 216.455,130.215 218.5,125.5 Z"/></g>
<g><path style="opacity:1" fill="#fefffe" d="M 247.5,137.5 C 263.17,137.333 278.837,137.5 294.5,138C 298.5,141 298.5,144 294.5,147C 278.833,147.667 263.167,147.667 247.5,147C 243.649,143.856 243.649,140.689 247.5,137.5 Z"/></g>
<g><path style="opacity:1" fill="#fefffe" d="M 215.5,159.5 C 221.842,159.334 228.175,159.5 234.5,160C 235.416,160.374 236.25,160.874 237,161.5C 238.089,165.048 238.589,168.715 238.5,172.5C 240.896,183.936 236.396,188.603 225,186.5C 221.833,186.333 218.667,186.167 215.5,186C 214.584,185.626 213.75,185.126 213,184.5C 211.409,177.608 211.076,170.608 212,163.5C 212.69,161.65 213.856,160.316 215.5,159.5 Z"/></g>
<g><path style="opacity:1" fill="#fefffe" d="M 247.5,159.5 C 268.169,159.333 288.836,159.5 309.5,160C 313.5,163 313.5,166 309.5,169C 288.833,169.667 268.167,169.667 247.5,169C 243.649,165.856 243.649,162.689 247.5,159.5 Z"/></g>
<g><path style="opacity:1" fill="#a21b43" d="M 218.5,164.5 C 222.846,164.334 227.179,164.501 231.5,165C 232,165.5 232.5,166 233,166.5C 236.833,180 232,184.833 218.5,181C 218,180.5 217.5,180 217,179.5C 215.955,174.215 216.455,169.215 218.5,164.5 Z"/></g>
<g><path style="opacity:1" fill="#fefffe" d="M 247.5,176.5 C 263.17,176.333 278.837,176.5 294.5,177C 298.5,180 298.5,183 294.5,186C 278.833,186.667 263.167,186.667 247.5,186C 243.649,182.856 243.649,179.689 247.5,176.5 Z"/></g>
<g><path style="opacity:1" fill="#fefffe" d="M 215.5,198.5 C 221.842,198.334 228.175,198.5 234.5,199C 235.416,199.374 236.25,199.874 237,200.5C 238.089,204.048 238.589,207.715 238.5,211.5C 240.896,222.936 236.396,227.603 225,225.5C 221.833,225.333 218.667,225.167 215.5,225C 214.584,224.626 213.75,224.126 213,223.5C 211.409,216.608 211.076,209.608 212,202.5C 212.69,200.65 213.856,199.316 215.5,198.5 Z"/></g>
<g><path style="opacity:1" fill="#fefffe" d="M 247.5,198.5 C 268.169,198.333 288.836,198.5 309.5,199C 313.5,202 313.5,205 309.5,208C 288.833,208.667 268.167,208.667 247.5,208C 243.649,204.856 243.649,201.689 247.5,198.5 Z"/></g>
<g><path style="opacity:1" fill="#a21b43" d="M 218.5,203.5 C 222.846,203.334 227.179,203.501 231.5,204C 232,204.5 232.5,205 233,205.5C 236.833,219 232,223.833 218.5,220C 218,219.5 217.5,219 217,218.5C 215.955,213.215 216.455,208.215 218.5,203.5 Z"/></g>
<g><path style="opacity:1" fill="#a21b43" d="M 357.5,214.5 C 366.857,214.168 376.19,214.502 385.5,215.5C 382.5,220.167 379.5,224.833 376.5,229.5C 373.167,230.833 369.833,230.833 366.5,229.5C 363.226,224.61 360.226,219.61 357.5,214.5 Z"/></g>
<g><path style="opacity:1" fill="#fefffe" d="M 247.5,215.5 C 263.17,215.333 278.837,215.5 294.5,216C 298.5,219 298.5,222 294.5,225C 278.833,225.667 263.167,225.667 247.5,225C 243.649,221.856 243.649,218.689 247.5,215.5 Z"/></g>
</svg>
