<svg width="20" height="20" viewBox="0 0 20 20" fill="none" xmlns="http://www.w3.org/2000/svg">
<path d="M19.3983 0.600858C18.596 -0.200286 17.2779 -0.200286 16.4183 0.600858L10 7.01001L3.58166 0.600858C2.77937 -0.200286 1.46132 -0.200286 0.601719 0.600858C-0.200573 1.402 -0.200573 2.71817 0.601719 3.57654L7.02006 9.98569L0.601719 16.3948C-0.200573 17.196 -0.200573 18.5122 0.601719 19.3705C1.00287 19.7711 1.57593 20 2.09169 20C2.60745 20 3.18052 19.7711 3.58166 19.3705L10 12.9614L16.4183 19.3705C16.8195 19.7711 17.3925 20 17.9083 20C18.4241 20 18.9971 19.7711 19.3983 19.3705C20.2006 18.5694 20.2006 17.2532 19.3983 16.3948L12.9799 9.98569L19.3983 3.57654C20.2006 2.71817 20.2006 1.402 19.3983 0.600858Z" fill="#FF878C"/>
</svg>