<?xml version="1.0" encoding="UTF-8"?>
<!DOCTYPE svg PUBLIC "-//W3C//DTD SVG 1.1//EN" "http://www.w3.org/Graphics/SVG/1.1/DTD/svg11.dtd">
<svg xmlns="http://www.w3.org/2000/svg" version="1.1" width="571px" height="300px" style="shape-rendering:geometricPrecision; text-rendering:geometricPrecision; image-rendering:optimizeQuality; fill-rule:evenodd; clip-rule:evenodd" xmlns:xlink="http://www.w3.org/1999/xlink">
<g><path style="opacity:1" fill="#ee402c" d="M -0.5,-0.5 C 189.833,-0.5 380.167,-0.5 570.5,-0.5C 570.5,99.5 570.5,199.5 570.5,299.5C 380.167,299.5 189.833,299.5 -0.5,299.5C -0.5,199.5 -0.5,99.5 -0.5,-0.5 Z"/></g>
<g><path style="opacity:1" fill="#fefffe" d="M 285.5,43.5 C 299.315,43.1472 305.815,49.8138 305,63.5C 304.032,68.4495 301.365,72.1161 297,74.5C 296.333,72.5 296.333,70.5 297,68.5C 302.229,61.4399 301.396,55.2733 294.5,50C 285.134,47.0305 279.468,50.3639 277.5,60C 277.891,63.1766 279.057,66.01 281,68.5C 282.433,75.6671 280.766,76.3337 276,70.5C 269.768,58.0225 272.935,49.0225 285.5,43.5 Z"/></g>
<g><path style="opacity:1" fill="#fefffe" d="M 286.5,61.5 C 289.652,60.9586 292.152,61.9586 294,64.5C 294.499,68.8206 294.666,73.1539 294.5,77.5C 293.5,77.5 292.5,77.5 291.5,77.5C 291.666,73.4862 291.499,69.4862 291,65.5C 289.667,64.1667 288.333,64.1667 287,65.5C 286.501,69.4862 286.334,73.4862 286.5,77.5C 285.5,77.5 284.5,77.5 283.5,77.5C 283.334,73.1539 283.501,68.8206 284,64.5C 285.045,63.6266 285.878,62.6266 286.5,61.5 Z"/></g>
<g><path style="opacity:1" fill="#fefffe" d="M 277.5,80.5 C 322.435,77.7012 353.268,97.0345 370,138.5C 380.378,180.874 367.545,214.041 331.5,238C 306.772,250.419 281.438,251.753 255.5,242C 213.563,219.611 198.063,185.111 209,138.5C 221.302,106.616 244.136,87.2823 277.5,80.5 Z"/></g>
<g><path style="opacity:1" fill="#ee402c" d="M 277.5,88.5 C 322.02,85.5646 350.853,105.231 364,147.5C 370.257,187.486 355.424,216.653 319.5,235C 288.904,246.214 261.237,241.214 236.5,220C 213.269,195.179 207.435,166.679 219,134.5C 230.751,109.243 250.251,93.9096 277.5,88.5 Z"/></g>
<g><path style="opacity:1" fill="#fefffe" d="M 277.5,103.5 C 314.122,100.979 337.289,117.312 347,152.5C 350.627,182.417 339.127,204.25 312.5,218C 275.881,229.806 249.048,218.639 232,184.5C 223.031,155.411 230.531,131.578 254.5,113C 261.819,108.664 269.486,105.497 277.5,103.5 Z"/></g>
<g><path style="opacity:1" fill="#ee402c" d="M 277.5,111.5 C 314.748,109.276 335.748,126.61 340.5,163.5C 336.699,194.968 319.032,212.301 287.5,215.5C 251.476,210.447 234.643,189.781 237,153.5C 242.235,131.433 255.735,117.433 277.5,111.5 Z"/></g>
<g><path style="opacity:1" fill="#fefffe" d="M 286.5,119.5 C 287.822,119.33 288.989,119.663 290,120.5C 294.37,134.61 298.537,148.776 302.5,163C 298.537,177.224 294.37,191.39 290,205.5C 288.667,206.833 287.333,206.833 286,205.5C 281.63,191.39 277.463,177.224 273.5,163C 277.541,148.379 281.875,133.879 286.5,119.5 Z"/></g>
<g><path style="opacity:1" fill="#ee402c" d="M 285.5,155.5 C 292.657,155.155 295.824,158.488 295,165.5C 290.333,172.167 285.667,172.167 281,165.5C 280.077,161.017 281.577,157.683 285.5,155.5 Z"/></g>
</svg>
