<?xml version="1.0" encoding="UTF-8"?>
<!DOCTYPE svg PUBLIC "-//W3C//DTD SVG 1.1//EN" "http://www.w3.org/Graphics/SVG/1.1/DTD/svg11.dtd">
<svg xmlns="http://www.w3.org/2000/svg" version="1.1" width="571px" height="300px" style="shape-rendering:geometricPrecision; text-rendering:geometricPrecision; image-rendering:optimizeQuality; fill-rule:evenodd; clip-rule:evenodd" xmlns:xlink="http://www.w3.org/1999/xlink">
<g><path style="opacity:1" fill="#f16a2d" d="M -0.5,-0.5 C 189.833,-0.5 380.167,-0.5 570.5,-0.5C 570.5,99.5 570.5,199.5 570.5,299.5C 380.167,299.5 189.833,299.5 -0.5,299.5C -0.5,199.5 -0.5,99.5 -0.5,-0.5 Z"/></g>
<g><path style="opacity:1" fill="#fefffe" d="M 222.5,40.5 C 255.835,40.3333 289.168,40.5 322.5,41C 333.333,51.8333 344.167,62.6667 355,73.5C 355.333,88.8333 355.667,104.167 356,119.5C 366.23,108.601 377.063,98.4339 388.5,89C 392.738,88.1771 396.738,88.8438 400.5,91C 406,96.5 411.5,102 417,107.5C 419.21,112.357 418.877,117.024 416,121.5C 396,141.5 376,161.5 356,181.5C 355.667,201.833 355.333,222.167 355,242.5C 354.167,246 352,248.167 348.5,249C 306.5,249.667 264.5,249.667 222.5,249C 219,248.167 216.833,246 216,242.5C 215.333,177.5 215.333,112.5 216,47.5C 217.018,43.9853 219.185,41.652 222.5,40.5 Z"/></g>
<g><path style="opacity:1" fill="#f16a2d" d="M 225.5,49.5 C 254.833,49.5 284.167,49.5 313.5,49.5C 313.5,60.1667 313.5,70.8333 313.5,81.5C 324.5,81.5 335.5,81.5 346.5,81.5C 346.667,97.5035 346.5,113.503 346,129.5C 343,132.5 340,135.5 337,138.5C 336.5,138 336,137.5 335.5,137C 301.5,136.333 267.5,136.333 233.5,137C 230.833,140.333 230.833,143.667 233.5,147C 264.833,147.333 296.167,147.667 327.5,148C 321.667,153.833 315.833,159.667 310,165.5C 308.991,167.025 308.491,168.692 308.5,170.5C 283.498,170.333 258.498,170.5 233.5,171C 230.833,174.333 230.833,177.667 233.5,181C 257.164,181.5 280.831,181.667 304.5,181.5C 303.16,187.191 301.66,192.858 300,198.5C 299.242,200.769 299.409,202.936 300.5,205C 278.167,205.333 255.833,205.667 233.5,206C 231.092,209.043 230.926,212.209 233,215.5C 267.762,216.662 302.595,216.829 337.5,216C 340.167,212.667 340.167,209.333 337.5,206C 328.833,205.667 320.167,205.333 311.5,205C 321.167,202 330.833,199 340.5,196C 342.624,194.878 344.457,193.378 346,191.5C 346.824,207.741 346.658,223.907 345.5,240C 305.262,240.83 265.096,240.663 225,239.5C 224.171,176.096 224.337,112.763 225.5,49.5 Z"/></g>
<g><path style="opacity:1" fill="#f16a2d" d="M 322.5,53.5 C 329.298,59.7973 335.965,66.2973 342.5,73C 335.842,73.4996 329.175,73.6663 322.5,73.5C 322.5,66.8333 322.5,60.1667 322.5,53.5 Z"/></g>
<g><path style="opacity:1" fill="#f16a2d" d="M 390.5,97.5 C 397.243,102.737 403.577,108.571 409.5,115C 386.333,138.167 363.167,161.333 340,184.5C 334.333,178.833 328.667,173.167 323,167.5C 322.333,166.833 322.333,166.167 323,165.5C 345.702,142.965 368.202,120.299 390.5,97.5 Z"/></g>
<g><path style="opacity:1" fill="#fefffe" d="M 233.5,101.5 C 267.835,101.333 302.168,101.5 336.5,102C 339.167,105.333 339.167,108.667 336.5,112C 302.167,112.667 267.833,112.667 233.5,112C 230.899,108.504 230.899,105.004 233.5,101.5 Z"/></g>
<g><path style="opacity:1" fill="#f16a2d" d="M 315.5,173.5 C 321.298,178.797 326.965,184.297 332.5,190C 324.431,192.846 316.431,195.013 308.5,196.5C 311.04,188.881 313.373,181.215 315.5,173.5 Z"/></g>
</svg>
