<?xml version="1.0" encoding="UTF-8"?>
<!DOCTYPE svg PUBLIC "-//W3C//DTD SVG 1.1//EN" "http://www.w3.org/Graphics/SVG/1.1/DTD/svg11.dtd">
<svg xmlns="http://www.w3.org/2000/svg" version="1.1" width="571px" height="300px" style="shape-rendering:geometricPrecision; text-rendering:geometricPrecision; image-rendering:optimizeQuality; fill-rule:evenodd; clip-rule:evenodd" xmlns:xlink="http://www.w3.org/1999/xlink">
<g><path style="opacity:1" fill="#f79d29" d="M -0.5,-0.5 C 189.833,-0.5 380.167,-0.5 570.5,-0.5C 570.5,99.5 570.5,199.5 570.5,299.5C 380.167,299.5 189.833,299.5 -0.5,299.5C -0.5,199.5 -0.5,99.5 -0.5,-0.5 Z"/></g>
<g><path style="opacity:1" fill="#fefffe" d="M 299.5,40.5 C 307.84,40.3336 316.173,40.5003 324.5,41C 326.09,42.0458 327.59,43.2125 329,44.5C 329.5,61.8301 329.667,79.1635 329.5,96.5C 346.503,96.3334 363.503,96.5001 380.5,97C 382.667,97.8333 384.167,99.3333 385,101.5C 385.667,109.5 385.667,117.5 385,125.5C 384.315,128.057 382.815,129.891 380.5,131C 363.503,131.5 346.503,131.667 329.5,131.5C 329.667,148.503 329.5,165.503 329,182.5C 328.5,184.333 327.333,185.5 325.5,186C 316.5,186.667 307.5,186.667 298.5,186C 296.667,185.5 295.5,184.333 295,182.5C 294.5,165.503 294.333,148.503 294.5,131.5C 278.5,131.5 262.5,131.5 246.5,131.5C 246.667,167.168 246.5,202.835 246,238.5C 244.565,240.211 242.731,241.378 240.5,242C 232.5,242.667 224.5,242.667 216.5,242C 214.508,241.426 213.008,240.259 212,238.5C 211.5,202.835 211.333,167.168 211.5,131.5C 203.493,131.666 195.493,131.5 187.5,131C 183.114,125.999 181.447,120.166 182.5,113.5C 181.411,107.075 183.078,101.575 187.5,97C 223.165,96.5 258.832,96.3333 294.5,96.5C 294.333,79.1635 294.5,61.8301 295,44.5C 296.667,43.2668 298.167,41.9335 299.5,40.5 Z"/></g>
<g><path style="opacity:1" fill="#f79d29" d="M 301.5,47.5 C 308.5,47.5 315.5,47.5 322.5,47.5C 322.5,54.5 322.5,61.5 322.5,68.5C 315.5,68.5 308.5,68.5 301.5,68.5C 301.5,61.5 301.5,54.5 301.5,47.5 Z"/></g>
<g><path style="opacity:1" fill="#f79d29" d="M 301.5,75.5 C 308.5,75.5 315.5,75.5 322.5,75.5C 322.5,82.5 322.5,89.5 322.5,96.5C 315.5,96.5 308.5,96.5 301.5,96.5C 301.5,89.5 301.5,82.5 301.5,75.5 Z"/></g>
<g><path style="opacity:1" fill="#f79d29" d="M 190.5,103.5 C 197.5,103.5 204.5,103.5 211.5,103.5C 211.5,110.5 211.5,117.5 211.5,124.5C 204.5,124.5 197.5,124.5 190.5,124.5C 190.5,117.5 190.5,110.5 190.5,103.5 Z"/></g>
<g><path style="opacity:1" fill="#f79d29" d="M 218.5,103.5 C 225.5,103.5 232.5,103.5 239.5,103.5C 239.5,110.5 239.5,117.5 239.5,124.5C 232.5,124.5 225.5,124.5 218.5,124.5C 218.5,117.5 218.5,110.5 218.5,103.5 Z"/></g>
<g><path style="opacity:1" fill="#f79d29" d="M 246.5,103.5 C 253.167,103.5 259.833,103.5 266.5,103.5C 266.5,110.5 266.5,117.5 266.5,124.5C 259.833,124.5 253.167,124.5 246.5,124.5C 246.5,117.5 246.5,110.5 246.5,103.5 Z"/></g>
<g><path style="opacity:1" fill="#f79d29" d="M 273.5,103.5 C 280.5,103.5 287.5,103.5 294.5,103.5C 294.5,110.5 294.5,117.5 294.5,124.5C 287.5,124.5 280.5,124.5 273.5,124.5C 273.5,117.5 273.5,110.5 273.5,103.5 Z"/></g>
<g><path style="opacity:1" fill="#f79d29" d="M 301.5,103.5 C 308.5,103.5 315.5,103.5 322.5,103.5C 322.5,110.5 322.5,117.5 322.5,124.5C 315.5,124.5 308.5,124.5 301.5,124.5C 301.5,117.5 301.5,110.5 301.5,103.5 Z"/></g>
<g><path style="opacity:1" fill="#f79d29" d="M 329.5,103.5 C 336.5,103.5 343.5,103.5 350.5,103.5C 350.5,110.5 350.5,117.5 350.5,124.5C 343.5,124.5 336.5,124.5 329.5,124.5C 329.5,117.5 329.5,110.5 329.5,103.5 Z"/></g>
<g><path style="opacity:1" fill="#f79d29" d="M 357.5,103.5 C 364.5,103.5 371.5,103.5 378.5,103.5C 378.5,110.5 378.5,117.5 378.5,124.5C 371.5,124.5 364.5,124.5 357.5,124.5C 357.5,117.5 357.5,110.5 357.5,103.5 Z"/></g>
<g><path style="opacity:1" fill="#f79d29" d="M 218.5,131.5 C 225.5,131.5 232.5,131.5 239.5,131.5C 239.5,138.5 239.5,145.5 239.5,152.5C 232.5,152.5 225.5,152.5 218.5,152.5C 218.5,145.5 218.5,138.5 218.5,131.5 Z"/></g>
<g><path style="opacity:1" fill="#f79d29" d="M 301.5,131.5 C 308.5,131.5 315.5,131.5 322.5,131.5C 322.5,138.5 322.5,145.5 322.5,152.5C 315.5,152.5 308.5,152.5 301.5,152.5C 301.5,145.5 301.5,138.5 301.5,131.5 Z"/></g>
<g><path style="opacity:1" fill="#f79d29" d="M 218.5,159.5 C 225.5,159.5 232.5,159.5 239.5,159.5C 239.5,166.167 239.5,172.833 239.5,179.5C 232.5,179.5 225.5,179.5 218.5,179.5C 218.5,172.833 218.5,166.167 218.5,159.5 Z"/></g>
<g><path style="opacity:1" fill="#f79d29" d="M 301.5,159.5 C 308.5,159.5 315.5,159.5 322.5,159.5C 322.5,166.167 322.5,172.833 322.5,179.5C 315.5,179.5 308.5,179.5 301.5,179.5C 301.5,172.833 301.5,166.167 301.5,159.5 Z"/></g>
<g><path style="opacity:1" fill="#fefffe" d="M 367.5,171.5 C 385.214,170.711 393.048,179.044 391,196.5C 389.877,199.249 388.377,201.749 386.5,204C 356.989,219.256 327.322,234.256 297.5,249C 286.167,249.667 274.833,249.667 263.5,249C 260.072,246.855 259.572,244.021 262,240.5C 268.378,231.578 274.878,222.744 281.5,214C 310.145,199.51 338.812,185.343 367.5,171.5 Z"/></g>
<g><path style="opacity:1" fill="#f79d29" d="M 367.5,179.5 C 379.319,178.485 384.486,183.818 383,195.5C 381.833,196.667 380.667,197.833 379.5,199C 353.167,212.167 326.833,225.333 300.5,238.5C 296.453,232.243 292.787,225.743 289.5,219C 315.717,206.059 341.717,192.892 367.5,179.5 Z"/></g>
<g><path style="opacity:1" fill="#f79d29" d="M 218.5,186.5 C 225.5,186.5 232.5,186.5 239.5,186.5C 239.5,193.5 239.5,200.5 239.5,207.5C 232.5,207.5 225.5,207.5 218.5,207.5C 218.5,200.5 218.5,193.5 218.5,186.5 Z"/></g>
<g><path style="opacity:1" fill="#f79d29" d="M 218.5,214.5 C 225.5,214.5 232.5,214.5 239.5,214.5C 239.5,221.5 239.5,228.5 239.5,235.5C 232.5,235.5 225.5,235.5 218.5,235.5C 218.5,228.5 218.5,221.5 218.5,214.5 Z"/></g>
<g><path style="opacity:1" fill="#f79d29" d="M 282.5,225.5 C 283.376,225.369 284.043,225.702 284.5,226.5C 286.966,231.46 289.633,236.294 292.5,241C 285.5,241.667 278.5,241.667 271.5,241C 275.386,235.954 279.053,230.787 282.5,225.5 Z"/></g>
</svg>
