<?xml version="1.0" encoding="UTF-8"?>
<!DOCTYPE svg PUBLIC "-//W3C//DTD SVG 1.1//EN" "http://www.w3.org/Graphics/SVG/1.1/DTD/svg11.dtd">
<svg xmlns="http://www.w3.org/2000/svg" version="1.1" width="571px" height="300px" style="shape-rendering:geometricPrecision; text-rendering:geometricPrecision; image-rendering:optimizeQuality; fill-rule:evenodd; clip-rule:evenodd" xmlns:xlink="http://www.w3.org/1999/xlink">
<g><path style="opacity:1" fill="#fefffe" d="M -0.5,-0.5 C 189.833,-0.5 380.167,-0.5 570.5,-0.5C 570.5,99.5 570.5,199.5 570.5,299.5C 380.167,299.5 189.833,299.5 -0.5,299.5C -0.5,199.5 -0.5,99.5 -0.5,-0.5 Z"/></g>
<g><path style="opacity:1" fill="#c2c3c2" d="M 265.5,43.5 C 268.238,42.9648 270.072,43.9648 271,46.5C 272.333,51.1667 273.667,55.8333 275,60.5C 275.769,63.0991 275.602,65.5991 274.5,68C 271.472,69.1397 269.305,68.3064 268,65.5C 267.035,59.6007 265.869,53.7674 264.5,48C 264.605,46.4085 264.939,44.9085 265.5,43.5 Z"/></g>
<g><path style="opacity:1" fill="#c2c3c2" d="M 308.5,43.5 C 312.57,42.508 314.57,44.008 314.5,48C 312.927,53.7901 311.427,59.6235 310,65.5C 308.776,68.473 306.776,69.1397 304,67.5C 303.833,66.3333 303.667,65.1667 303.5,64C 305.068,57.1314 306.735,50.298 308.5,43.5 Z"/></g>
<g><path style="opacity:1" fill="#c2c3c2" d="M 226.5,65.5 C 228.199,65.3398 229.866,65.5065 231.5,66C 236.867,71.0318 241.867,76.3651 246.5,82C 244.991,85.6026 242.657,86.6026 239.5,85C 235,80.5 230.5,76 226,71.5C 225.322,69.4024 225.489,67.4024 226.5,65.5 Z"/></g>
<g><path style="opacity:1" fill="#c2c3c2" d="M 347.5,65.5 C 352.675,64.5071 354.509,66.5071 353,71.5C 347.968,76.8665 342.635,81.8665 337,86.5C 334.833,85.6667 333.333,84.1667 332.5,82C 337.337,76.3303 342.337,70.8303 347.5,65.5 Z"/></g>
<g><path style="opacity:1" fill="#f7825d" d="M 292.5,209.5 C 292.5,206.833 292.5,204.167 292.5,201.5C 292.091,190.104 292.591,178.77 294,167.5C 301.379,159.123 308.379,150.456 315,141.5C 318.936,128.309 315.769,117.142 305.5,108C 290.942,100.334 278.108,102.501 267,114.5C 263.152,120.99 261.652,127.99 262.5,135.5C 255.5,135.5 248.5,135.5 241.5,135.5C 238.833,135.5 236.167,135.5 233.5,135.5C 232.812,109.694 243.812,90.8605 266.5,79C 295.503,68.6197 319.003,75.7864 337,100.5C 352.789,131.33 347.122,157.33 320,178.5C 314.89,188.172 313.057,198.505 314.5,209.5C 307.167,209.5 299.833,209.5 292.5,209.5 Z"/></g>
<g><path style="opacity:1" fill="#fefffe" d="M 292.5,201.5 C 285.5,201.5 278.5,201.5 271.5,201.5C 273.941,186.566 268.941,175.066 256.5,167C 247.258,158.559 242.258,148.059 241.5,135.5C 248.5,135.5 255.5,135.5 262.5,135.5C 261.652,127.99 263.152,120.99 267,114.5C 278.108,102.501 290.942,100.334 305.5,108C 315.769,117.142 318.936,128.309 315,141.5C 308.379,150.456 301.379,159.123 294,167.5C 292.591,178.77 292.091,190.104 292.5,201.5 Z"/></g>
<g><path style="opacity:1" fill="#c2c3c2" d="M 203.5,104.5 C 211.475,105.547 219.142,107.714 226.5,111C 228.653,116.848 226.653,118.848 220.5,117C 215.167,115.333 209.833,113.667 204.5,112C 202.285,109.758 201.952,107.258 203.5,104.5 Z"/></g>
<g><path style="opacity:1" fill="#c2c3c2" d="M 370.5,104.5 C 376.158,103.679 377.825,105.846 375.5,111C 367.658,114.963 359.491,116.796 351,116.5C 350.257,114.559 350.424,112.726 351.5,111C 357.968,108.9 364.302,106.734 370.5,104.5 Z"/></g>
<g><path style="opacity:1" fill="#c2c3c2" d="M 233.5,135.5 C 236.167,135.5 238.833,135.5 241.5,135.5C 242.258,148.059 247.258,158.559 256.5,167C 268.941,175.066 273.941,186.566 271.5,201.5C 278.5,201.5 285.5,201.5 292.5,201.5C 292.5,204.167 292.5,206.833 292.5,209.5C 283.167,209.5 273.833,209.5 264.5,209.5C 265.943,198.505 264.11,188.172 259,178.5C 243.849,168.211 235.349,153.877 233.5,135.5 Z"/></g>
<g><path style="opacity:1" fill="#c2c3c2" d="M 220.5,144.5 C 226.662,143.156 228.662,145.322 226.5,151C 219.249,154.434 211.749,155.934 204,155.5C 203.192,153.421 203.359,151.421 204.5,149.5C 210.04,148.122 215.373,146.455 220.5,144.5 Z"/></g>
<g><path style="opacity:1" fill="#c2c3c2" d="M 351.5,144.5 C 359.68,145.17 367.513,147.17 375,150.5C 376.393,154.202 375.226,156.202 371.5,156.5C 364.474,155.037 357.641,153.037 351,150.5C 350.322,148.402 350.489,146.402 351.5,144.5 Z"/></g>
<g><path style="opacity:1" fill="#c2c3c2" d="M 240.5,174.5 C 244.451,175.729 245.617,178.062 244,181.5C 239.5,186 235,190.5 230.5,195C 225.333,196.5 223.5,194.667 225,189.5C 230.062,184.269 235.229,179.269 240.5,174.5 Z"/></g>
<g><path style="opacity:1" fill="#c2c3c2" d="M 336.5,174.5 C 342.429,178.924 347.929,183.924 353,189.5C 354.5,194.667 352.667,196.5 347.5,195C 342.133,189.968 337.133,184.635 332.5,179C 333.357,176.981 334.691,175.481 336.5,174.5 Z"/></g>
<g><path style="opacity:1" fill="#c2c3c2" d="M 292.5,213.5 C 292.5,215.833 292.5,218.167 292.5,220.5C 283.167,220.5 273.833,220.5 264.5,220.5C 264.5,218.167 264.5,215.833 264.5,213.5C 273.833,213.5 283.167,213.5 292.5,213.5 Z"/></g>
<g><path style="opacity:1" fill="#f7825d" d="M 292.5,213.5 C 299.833,213.5 307.167,213.5 314.5,213.5C 314.5,215.833 314.5,218.167 314.5,220.5C 307.167,220.5 299.833,220.5 292.5,220.5C 292.5,218.167 292.5,215.833 292.5,213.5 Z"/></g>
<g><path style="opacity:1" fill="#c2c3c2" d="M 292.5,224.5 C 292.5,227.167 292.5,229.833 292.5,232.5C 284.826,232.666 277.159,232.5 269.5,232C 267.709,229.894 267.042,227.394 267.5,224.5C 275.833,224.5 284.167,224.5 292.5,224.5 Z"/></g>
<g><path style="opacity:1" fill="#f7825d" d="M 292.5,224.5 C 298.5,224.5 304.5,224.5 310.5,224.5C 310.958,227.394 310.291,229.894 308.5,232C 303.177,232.499 297.844,232.666 292.5,232.5C 292.5,229.833 292.5,227.167 292.5,224.5 Z"/></g>
<g><path style="opacity:1" fill="#c2c3c2" d="M 271.5,235.5 C 283.326,234.34 295.326,234.174 307.5,235C 302.07,246.256 293.404,249.922 281.5,246C 277.26,243.262 273.926,239.762 271.5,235.5 Z"/></g>
</svg>
