<?xml version="1.0" encoding="UTF-8"?>
<!DOCTYPE svg PUBLIC "-//W3C//DTD SVG 1.1//EN" "http://www.w3.org/Graphics/SVG/1.1/DTD/svg11.dtd">
<svg xmlns="http://www.w3.org/2000/svg" version="1.1" width="571px" height="300px" style="shape-rendering:geometricPrecision; text-rendering:geometricPrecision; image-rendering:optimizeQuality; fill-rule:evenodd; clip-rule:evenodd" xmlns:xlink="http://www.w3.org/1999/xlink">
<g><path style="opacity:1" fill="#27bfe5" d="M -0.5,-0.5 C 189.833,-0.5 380.167,-0.5 570.5,-0.5C 570.5,99.5 570.5,199.5 570.5,299.5C 380.167,299.5 189.833,299.5 -0.5,299.5C -0.5,199.5 -0.5,99.5 -0.5,-0.5 Z"/></g>
<g><path style="opacity:1" fill="#fefffe" d="M 285.5,40.5 C 288.187,40.3359 290.854,40.5026 293.5,41C 326.167,51.6667 358.833,62.3333 391.5,73C 393.333,73.5 394.5,74.6667 395,76.5C 397.067,82.5856 395.233,86.7523 389.5,89C 383.496,90.7784 377.662,92.945 372,95.5C 371.667,101.5 371.333,107.5 371,113.5C 370.167,114.333 369.333,115.167 368.5,116C 356.117,119.775 350.45,115.275 351.5,102.5C 348.618,103.961 345.618,105.127 342.5,106C 341.683,114.088 341.183,122.255 341,130.5C 338.592,132.956 335.759,134.789 332.5,136C 318.591,139.836 304.424,141.336 290,140.5C 275.257,141.261 260.757,139.761 246.5,136C 243.241,134.789 240.408,132.956 238,130.5C 237.817,122.255 237.317,114.088 236.5,106C 219.5,99.6667 202.5,93.3333 185.5,87C 183.477,83.8169 182.977,80.3169 184,76.5C 184.5,74.6667 185.667,73.5 187.5,73C 220.374,62.4305 253.041,51.5972 285.5,40.5 Z"/></g>
<g><path style="opacity:1" fill="#27bfe6" d="M 286.5,48.5 C 311.114,54.9064 335.447,62.4064 359.5,71C 360.641,76.7504 360.807,82.5837 360,88.5C 356.697,89.235 354.197,91.0684 352.5,94C 349.129,95.0681 345.796,96.2347 342.5,97.5C 344.005,88.6877 340.671,82.8543 332.5,80C 318.395,76.4143 304.062,74.9143 289.5,75.5C 274.938,74.9143 260.605,76.4143 246.5,80C 238.329,82.8543 234.995,88.6877 236.5,97.5C 221.413,92.027 206.413,86.3603 191.5,80.5C 223.255,69.8043 254.921,59.1376 286.5,48.5 Z"/></g>
<g><path style="opacity:1" fill="#27bfe6" d="M 364.5,72.5 C 372.287,74.7626 379.954,77.4293 387.5,80.5C 380.091,83.9695 372.424,86.6361 364.5,88.5C 364.5,83.1667 364.5,77.8333 364.5,72.5 Z"/></g>
<g><path style="opacity:1" fill="#27bfe6" d="M 269.5,83.5 C 282.837,83.3334 296.171,83.5001 309.5,84C 317.662,84.7488 325.662,86.2488 333.5,88.5C 333.666,98.5056 333.5,108.506 333,118.5C 318.824,114.462 304.324,112.795 289.5,113.5C 274.855,112.757 260.522,114.423 246.5,118.5C 245.501,108.522 245.168,98.5222 245.5,88.5C 253.53,86.3888 261.53,84.7221 269.5,83.5 Z"/></g>
<g><path style="opacity:1" fill="#27bfe6" d="M 361.5,98.5 C 363.402,101.337 364.069,104.671 363.5,108.5C 362.5,108.5 361.5,108.5 360.5,108.5C 360.253,105.061 360.586,101.728 361.5,98.5 Z"/></g>
<g><path style="opacity:1" fill="#27bfe6" d="M 269.5,121.5 C 282.837,121.333 296.171,121.5 309.5,122C 317.73,122.594 325.73,124.26 333.5,127C 326.069,129.686 318.402,131.353 310.5,132C 296.5,132.667 282.5,132.667 268.5,132C 260.609,131.355 252.943,129.689 245.5,127C 253.463,124.403 261.463,122.57 269.5,121.5 Z"/></g>
<g><path style="opacity:1" fill="#fefefe" d="M 193.5,147.5 C 225.427,150.959 257.427,153.626 289.5,155.5C 321.576,153.592 353.576,151.092 385.5,148C 387.815,149.109 389.315,150.943 390,153.5C 391.383,158.08 392.383,162.747 393,167.5C 393.667,179.833 393.667,192.167 393,204.5C 392.858,212.262 390.358,219.096 385.5,225C 364.758,223.824 344.091,221.658 323.5,218.5C 322.167,218.833 320.833,219.167 319.5,219.5C 322,224.5 324.5,229.5 327,234.5C 327.667,236.5 327.667,238.5 327,240.5C 322.328,241.682 317.828,241.016 313.5,238.5C 311.172,241.822 309.339,245.489 308,249.5C 305.524,251.815 303.191,251.482 301,248.5C 298,242.5 295,236.5 292,230.5C 290.801,236.904 288.468,242.904 285,248.5C 282.809,251.482 280.476,251.815 278,249.5C 276.661,245.489 274.828,241.822 272.5,238.5C 268.394,240.707 264.061,241.54 259.5,241C 258.409,238.936 258.242,236.769 259,234.5C 261.5,229.5 264,224.5 266.5,219.5C 265.167,219.167 263.833,218.833 262.5,218.5C 239.535,221.367 216.535,223.534 193.5,225C 190.769,222.374 188.936,219.207 188,215.5C 184.393,194.753 184.726,174.086 189,153.5C 189.804,150.854 191.304,148.854 193.5,147.5 Z"/></g>
<g><path style="opacity:1" fill="#27bfe6" d="M 195.5,155.5 C 199.325,175.984 199.492,196.651 196,217.5C 192.853,196.854 192.686,176.187 195.5,155.5 Z"/></g>
<g><path style="opacity:1" fill="#27bfe6" d="M 203.5,156.5 C 225.255,158.442 247.255,160.608 269.5,163C 271.65,168.083 272.65,173.417 272.5,179C 271.184,185.98 269.85,192.98 268.5,200C 268.357,203.535 269.024,206.868 270.5,210C 248.193,211.701 226.027,214.201 204,217.5C 206.429,201.011 207.096,184.344 206,167.5C 205.581,163.608 204.748,159.942 203.5,156.5 Z"/></g>
<g><path style="opacity:1" fill="#27bfe6" d="M 375.5,155.5 C 378.167,155.5 380.833,155.5 383.5,155.5C 386.167,176.169 386.167,196.835 383.5,217.5C 360.823,215.166 338.157,212.666 315.5,210C 319.216,199.971 317.716,190.805 311,182.5C 310.039,176.165 309.206,169.831 308.5,163.5C 331.012,161.152 353.345,158.485 375.5,155.5 Z"/></g>
<g><path style="opacity:1" fill="#27bfe6" d="M 277.5,162.5 C 285.443,163.138 293.443,163.804 301.5,164.5C 303.233,168.695 303.733,173.029 303,177.5C 295.384,174.636 287.884,174.97 280.5,178.5C 279.283,173.2 278.283,167.866 277.5,162.5 Z"/></g>
<g><path style="opacity:1" fill="#27bfe6" d="M 287.5,183.5 C 300.348,181.856 308.015,187.356 310.5,200C 306.674,215.078 297.674,219.745 283.5,214C 276.044,207.356 274.544,199.522 279,190.5C 281.441,187.546 284.275,185.213 287.5,183.5 Z"/></g>
<g><path style="opacity:1" fill="#27bfe6" d="M 275.5,218.5 C 279.54,220.85 283.54,223.184 287.5,225.5C 285.667,229.167 283.833,232.833 282,236.5C 280.836,234.351 279.67,232.185 278.5,230C 275.723,229.949 273.057,229.782 270.5,229.5C 272.453,225.931 274.119,222.264 275.5,218.5 Z"/></g>
<g><path style="opacity:1" fill="#27bfe6" d="M 309.5,218.5 C 311.726,221.945 313.726,225.611 315.5,229.5C 312.943,229.782 310.277,229.949 307.5,230C 306.33,232.185 305.164,234.351 304,236.5C 302.167,232.833 300.333,229.167 298.5,225.5C 302.331,223.418 305.998,221.085 309.5,218.5 Z"/></g>
</svg>
